<svg width="120" height="172" viewBox="0 0 120 172" fill="none" xmlns="http://www.w3.org/2000/svg">
<path d="M3.25516 86.7123C3.34366 86.484 3.6425 86.3609 4.20554 86.3609C8.1456 86.3609 9.904 88.6298 9.904 91.7964C9.904 95.2619 8.10968 97.0729 4.20554 97.0729C3.50141 97.0729 3.20257 96.8972 3.20257 96.3162V87.0817L3.25516 86.7123ZM1.60193 95.7711C1.60193 97.055 1.40826 97.2833 0.00128235 97.4064V97.7411H4.96098C7.08876 97.7411 8.75995 97.1781 9.88604 96.1225L10.1323 95.8583C11.1699 94.7848 11.6444 93.3073 11.6444 91.6541C11.6444 87.9423 9.12933 85.6914 4.69677 85.6914H0V86.0428C0.141083 86.0608 0.264209 86.0608 0.351424 86.0775L0.985013 86.2185L1.24922 86.3596C1.49548 86.5353 1.60065 86.9753 1.60065 87.6794V95.7698L1.60193 95.7711Z" fill="#127DC2"/>
<path d="M14.5474 93.7824C14.5128 93.6067 14.5128 93.3784 14.5128 93.1321C14.5128 91.8829 14.9874 90.0193 16.4303 90.0193H16.5188C17.4512 90.0193 18.2079 90.4772 18.4362 92.0599L14.5487 93.7837L14.5474 93.7824ZM20.0702 94.7674C19.2083 96.0513 18.4349 96.6669 17.2562 96.6669C15.0746 96.649 14.7232 95.0137 14.6526 94.5032L20.4922 91.847V91.3891C20.369 91.4238 20.2279 91.4238 20.1228 91.4238C19.9291 91.4238 19.806 91.3891 19.7354 91.3532C19.3314 90.104 18.381 89.3652 16.9215 89.3652C14.6347 89.3652 13.2982 91.3699 13.2803 93.8504C13.3329 96.1013 14.5821 97.9136 16.5341 97.9136C18.24 97.9136 19.4546 96.858 20.21 94.888L20.0689 94.7649L20.0702 94.7674Z" fill="#127DC2"/>
<path d="M21.2139 86.2714H21.7769C22.3746 86.2714 22.6388 86.5356 22.6388 87.3795V96.1741C22.6388 97.1065 22.4105 97.3874 21.2139 97.4759V97.7401H25.3296V97.4759C24.2215 97.4054 23.9406 97.2822 23.9406 96.2267V85.2338L23.906 85.2158L21.2152 86.0072V86.2714H21.2139Z" fill="#127DC2"/>
<path d="M28.3906 91.5488C28.9716 90.9332 29.8335 90.3522 30.4312 90.3522C31.3636 90.3522 31.8561 90.9858 31.8561 92.2696V95.8929C31.8561 97.0716 31.7151 97.3704 30.6069 97.4756V97.7398H34.2302V97.4756C33.2272 97.2819 33.14 97.1767 33.14 95.8929V92.2517C33.14 90.3342 32.4359 89.3672 31.0815 89.3672L28.3906 90.8973V85.2514L28.3727 85.2168L25.9281 86.0081V86.2723H26.3321C26.5604 86.3775 27.0709 86.5006 27.0709 87.1689V95.8929C27.0709 97.1767 27.0003 97.3178 25.9102 97.4756V97.7398H29.604V97.4756C28.5843 97.3525 28.3906 97.2114 28.3906 95.8929V91.5488Z" fill="#127DC2"/>
<path d="M36.9028 85.3057C36.4103 85.3057 36.1115 85.7456 36.1115 86.2381C36.1115 86.8537 36.5334 87.1705 36.9028 87.1705C37.4479 87.1705 37.7647 86.7306 37.7647 86.2381L37.7121 85.8687C37.5543 85.4993 37.2901 85.3057 36.9028 85.3057ZM35.0559 90.3718V90.636H35.3727C35.9537 90.636 36.4103 90.8643 36.4103 91.5864V95.8958C36.4103 97.1797 36.2872 97.408 34.9854 97.4785V97.7427H39.1011V97.4785C37.9045 97.408 37.7467 97.2502 37.7467 95.8958V89.4227L37.7121 89.3701L35.0559 90.3731V90.3718Z" fill="#127DC2"/>
<path d="M55.3726 88.3643C55.3726 86.5174 55.5304 86.2185 57.0438 86.0428V85.6914H53.1037V86.0428C54.4402 86.166 54.757 86.4827 54.757 88.3643V93.2714C54.757 96.5073 53.332 97.2114 51.362 97.2114C49.2163 97.2114 48.2492 96.2085 48.2492 93.5176V87.6781C48.2492 86.3763 48.3723 86.1826 49.8678 86.0428V85.6914H45.0312V86.0428C46.4741 86.1134 46.6499 86.3417 46.6499 87.6781V93.3599C46.6499 96.456 48.0389 97.9861 50.9593 97.9861C53.8797 97.9861 55.3739 96.5971 55.3739 93.1316V88.3656L55.3726 88.3643Z" fill="#127DC2"/>
<path d="M57.4127 90.51H57.8167C58.3618 90.51 58.5555 90.7036 58.5555 91.5835V96.1045C58.5555 97.1075 58.3798 97.3884 57.4294 97.4769V97.7411H61.0347V97.4769C60.2254 97.4243 59.856 97.2127 59.856 96.5265V91.4078C60.2074 90.9499 61.1052 90.3702 61.7209 90.3702H61.7914C62.7059 90.3702 63.1804 90.9678 63.1804 92.1465V95.9455C63.1804 97.0357 62.9688 97.3884 62.0018 97.4756V97.7398H65.5545V97.4756C64.7631 97.3871 64.4463 97.2293 64.4463 96.2623V91.091C64.4463 90.1585 63.5665 89.3672 62.67 89.3672H62.5122L59.8381 90.8447V89.4018L59.7675 89.3672L57.4102 90.1932V90.51H57.4127Z" fill="#127DC2"/>
<path d="M68.2299 85.3057C67.7374 85.3057 67.4386 85.7456 67.4386 86.2381C67.4386 86.8537 67.8606 87.1705 68.2299 87.1705C68.775 87.1705 69.0918 86.7306 69.0918 86.2381L69.0392 85.8687C68.8815 85.4993 68.6173 85.3057 68.2299 85.3057ZM66.383 90.3718V90.636H66.6998C67.2808 90.636 67.7374 90.8643 67.7374 91.5864V95.8958C67.7374 97.1797 67.6143 97.408 66.3125 97.4785V97.7427H70.4283V97.4785C69.2316 97.408 69.0739 97.2502 69.0739 95.8958V89.4227L69.0392 89.3701L66.383 90.3731V90.3718Z" fill="#127DC2"/>
<path d="M76.3903 89.542V89.8229C76.9713 89.8934 77.2342 90.0691 77.2342 90.4039C77.2342 90.5796 77.2163 90.7733 77.1458 90.949L75.2988 95.6624L73.434 91.0016C73.3109 90.7553 73.2583 90.527 73.2583 90.3333C73.2583 90.0345 73.4699 89.9114 74.0676 89.8229V89.542H70.7432V89.8229C71.3934 89.8934 71.4819 89.9114 72.3618 91.916L74.6306 97.5273C74.7358 97.8261 74.8063 97.9851 74.8769 97.9851C74.9474 97.9851 75.1052 97.6863 75.2809 97.0886L77.5677 91.2311C78.0948 90.0704 78.1308 89.9114 78.7105 89.8242V89.5433H76.389L76.3903 89.542Z" fill="#127DC2"/>
<path d="M80.6656 93.7824C80.631 93.6067 80.631 93.3784 80.631 93.1321C80.631 91.8829 81.1055 90.0193 82.5484 90.0193H82.6369C83.5694 90.0193 84.3261 90.4772 84.5544 92.0599L80.6669 93.7837L80.6656 93.7824ZM86.1884 94.7674C85.3265 96.0513 84.5531 96.6669 83.3744 96.6669C81.1928 96.649 80.8413 95.0137 80.7708 94.5032L86.6103 91.847V91.3891C86.4872 91.4238 86.3461 91.4238 86.2409 91.4238C86.0473 91.4238 85.9241 91.3891 85.8536 91.3532C85.4496 90.104 84.4992 89.3652 83.0397 89.3652C80.7528 89.3652 79.4164 91.3699 79.3984 93.8504C79.451 96.1013 80.7002 97.9136 82.6523 97.9136C84.3581 97.9136 85.5727 96.858 86.3282 94.888L86.1871 94.7649L86.1884 94.7674Z" fill="#127DC2"/>
<path d="M87.6316 90.6331H88.1241C88.5987 90.6331 88.8975 90.8793 88.8975 91.6527V96.2264C88.8975 97.1229 88.7744 97.246 87.5957 97.4756V97.7398H91.7641V97.4756C90.6033 97.441 90.216 97.1947 90.216 96.1032V92.0054C90.216 91.3552 91.1125 90.5279 91.5358 90.5279C91.782 90.5279 92.3271 91.232 92.4323 92.1106L93.752 90.7216C93.6994 90.1059 93.0312 89.3672 92.4682 89.3672L90.2173 91.091V89.4018L90.1993 89.3672L87.6316 90.3522V90.6331Z" fill="#127DC2"/>
<path d="M99.1703 89.7366C98.783 89.7366 98.0968 89.3851 97.4286 89.3851C95.969 89.3851 95.0892 90.3881 95.0892 91.6194C95.0892 92.5864 95.6343 93.3778 97.1297 94.2397L98.1853 94.8553C98.8356 95.2247 99.1703 95.6826 99.1703 96.2276C99.1703 97.0716 98.5367 97.5295 97.5876 97.5295C96.3384 97.5295 95.3534 96.8959 94.8788 94.9784H94.7031L95.0379 98.5837H95.6189C95.9883 98.0386 96.2871 97.8629 96.9912 97.8629C97.1143 97.8629 97.2375 97.8629 97.3786 97.8809C97.5017 97.8809 97.6428 97.8988 97.8005 97.9155C99.1729 97.9155 100.228 96.8074 100.228 95.5941C100.228 94.7501 99.8065 94.0819 98.7509 93.4304L96.8335 92.2517C96.2704 91.9528 96.0242 91.5488 96.0242 91.0204C96.0242 90.2111 96.6052 89.7892 97.4658 89.7892C98.4687 89.7892 99.4358 90.3868 99.8578 92.0234H99.9988L99.6474 89.3672H99.4897C99.3845 89.4724 99.2088 89.7366 99.1729 89.7366H99.1703Z" fill="#127DC2"/>
<path d="M103.427 85.3057C102.935 85.3057 102.636 85.7456 102.636 86.2381C102.636 86.8537 103.058 87.1705 103.427 87.1705C103.972 87.1705 104.289 86.7306 104.289 86.2381L104.236 85.8687C104.077 85.4993 103.815 85.3057 103.427 85.3057ZM101.58 90.3718V90.636H101.897C102.478 90.636 102.935 90.8643 102.935 91.5864V95.8958C102.935 97.1797 102.812 97.408 101.51 97.4785V97.7427H105.626V97.4785C104.429 97.408 104.271 97.2502 104.271 95.8958V89.4227L104.236 89.3701L101.58 90.3731V90.3718Z" fill="#127DC2"/>
<path d="M108.72 89.5432V86.6934C108.649 86.7639 108.385 87.1859 108.104 87.6437C108.086 88.3825 106.996 89.7023 106.346 90.0011C106.346 90.0716 106.346 90.1063 106.364 90.1422H107.367V95.6123C107.367 97.1604 107.877 97.9158 108.897 97.9158C109.741 97.9158 110.427 97.4759 110.972 96.5614L110.849 96.3498C110.514 96.7718 110.11 96.9834 109.741 96.9834C109.054 96.9834 108.721 96.4909 108.721 95.3481V90.1422H110.568V89.5445H108.721L108.72 89.5432Z" fill="#127DC2"/>
<path d="M113.012 101.681C114.103 101.663 114.946 100.661 115.862 98.0573L118.712 90.3889C118.888 90.0374 119.116 89.8784 119.469 89.8258V89.5449H117.235V89.8258C117.798 89.8258 118.079 89.9669 118.079 90.2837C118.079 90.3722 118.079 90.4774 118.026 90.5825L116.179 95.6128L114.104 91.0045C113.946 90.7403 113.892 90.494 113.892 90.3183C113.945 90.09 114.28 89.931 114.93 89.8258V89.5449H111.43V89.8091C111.888 89.8976 112.221 90.0913 112.344 90.3901L114.437 95.0164C114.736 95.6666 115.404 97.2673 115.404 97.7431C115.404 99.027 114.068 100.892 113.223 100.926H113.188C112.889 100.926 112.766 101.173 112.766 101.384C112.766 101.542 112.837 101.683 112.994 101.683H113.012V101.681Z" fill="#127DC2"/>
<path d="M9.81809 100.187C9.15757 100.187 8.75612 100.611 8.75612 101.224C8.75612 101.885 9.20502 102.286 9.81809 102.286C10.4786 102.286 10.8557 101.838 10.8557 101.224C10.8557 100.564 10.4312 100.187 9.81809 100.187ZM0.429688 119.06H15.3383C15.7153 119.06 15.8103 119.012 15.9757 118.847H15.9988L15.9039 120.238L16.1399 120.261L16.7299 111.84C16.7299 109.784 15.0074 108.113 12.8847 108.113H12.4127C12.4127 108.671 12.8886 109.127 13.4747 109.127C15.0356 109.127 16.3053 110.342 16.3053 111.84C16.3053 113.483 14.8778 114.813 13.1207 114.813C11.7047 114.813 10.7621 113.889 10.7621 112.5V104.504H10.5735V104.599C10.5735 105.566 9.41793 105.849 8.45087 105.849H7.22345V106.062H8.21488C8.67532 106.062 8.92286 106.321 8.92286 106.77V111.889C8.92286 113.902 10.6017 115.239 13.122 115.239C14.3686 115.239 15.4652 114.645 16.1142 113.737L15.9526 115.924C15.7795 118.193 14.2545 118.636 11.9895 118.636H3.82721V118.613C4.11066 118.33 4.34665 117.905 4.34665 117.387V103.539C4.34665 102.407 4.48774 102.313 5.62024 102.313H5.97423V102.1H0.43097V102.313H1.25694C2.38945 102.313 2.50745 102.408 2.50745 103.539V117.435C2.50745 118.567 2.38945 118.85 1.25694 118.85H0.43097V119.063L0.429688 119.06Z" fill="#231F20"/>
<path d="M27.9605 115.849C27.9605 113.793 26.2341 112.122 24.1153 112.122H23.6434C23.6434 112.68 24.1192 113.136 24.7053 113.136C26.2662 113.136 27.536 114.351 27.536 115.849C27.536 117.492 26.1085 118.822 24.3513 118.822C22.9354 118.822 21.9927 117.898 21.9927 116.511V106.036H27.8669V105.399H21.6862V105.375C21.8747 105.281 21.9927 104.88 21.9927 104.385V99.2666H21.7567V102.027C21.7567 102.538 20.9743 105.4 18.8312 105.4H17.0625V106.037H20.1522V115.898C20.1522 117.911 21.8311 119.248 24.3513 119.248C26.3406 119.248 27.9605 117.727 27.9605 115.85" fill="#231F20"/>
<path d="M35.983 111.308L42.451 111.39C42.8524 111.39 43.1743 111.084 43.1743 110.707V110.589C43.1743 107.219 40.681 104.974 36.9308 104.974C32.9715 104.974 29.751 108.135 29.751 112.051C29.751 116.368 32.597 119.246 36.859 119.246C39.8114 119.246 42.0803 117.866 43.1974 115.578L42.8396 115.342C41.802 117.524 39.655 118.822 36.859 118.822C34.063 118.822 31.7556 115.622 31.7556 111.674C31.7556 107.726 33.7923 105.398 36.8359 105.398C39.4703 105.398 41.2235 107.475 41.2235 110.589C41.2235 110.73 41.1761 110.802 41.035 110.802H35.9791C34.4465 110.802 33.1998 111.894 33.1998 113.244C33.1998 113.83 33.6513 114.306 34.2143 114.306V112.961C34.2143 112.05 35.0044 111.31 35.983 111.31V111.308Z" fill="#231F20"/>
<path d="M46.5729 117.595C46.5729 118.421 46.1484 118.845 45.3224 118.845H44.4964V119.058H51.1722V118.87H49.6857C48.8597 118.87 48.4121 118.445 48.4121 117.619V112.169C48.4121 108.206 50.0166 105.564 52.3983 105.564V105.587C52.3034 105.728 52.2329 105.918 52.2329 106.13C52.2329 106.695 52.7279 107.192 53.2948 107.192C53.8617 107.192 54.3324 106.697 54.3324 106.13C54.3324 105.658 54.0259 105.281 53.6245 105.138C53.2474 104.997 52.8459 104.95 52.397 104.95C50.4386 104.95 48.8225 106.636 48.1979 109.55H48.0094V109.503C48.1158 109.173 48.1979 108.134 48.1979 107.333V104.243H48.0094V104.338C48.0094 105.305 47.0423 105.872 46.0983 106.061L44.2822 106.438L44.3053 106.579L45.6969 106.461C45.729 106.457 45.7597 106.457 45.7918 106.457C46.26 106.457 46.5703 106.795 46.5703 107.216V117.596L46.5729 117.595Z" fill="#231F20"/>
<path d="M66.8126 109.268C66.8126 106.692 64.3911 104.974 60.7499 104.974C59.3339 104.974 58.2258 105.469 57.4947 106.011C57.3293 106.129 57.1407 106.483 57.1177 106.554L56.9522 106.506C56.9997 106.341 57.0227 106.082 57.0471 105.751L57.1177 104.5H56.8817L56.6226 110.068L57.0471 110.064L57.1177 108.602C57.2036 106.769 58.4387 105.398 60.7743 105.398C63.2945 105.398 64.9734 106.822 64.9734 108.96V113.725C64.9734 116.422 62.9136 118.607 60.3728 118.607C58.3759 118.607 57.0471 117.334 57.0471 115.423C57.0471 113.131 58.254 111.601 60.0663 111.601C61.4348 111.601 62.5429 112.591 62.5429 113.818V114.926C63.1008 114.926 63.5574 114.451 63.5574 113.864C63.5574 112.378 61.9927 111.175 60.0663 111.175C57.1215 111.175 55.1592 112.901 55.1592 115.492C55.1592 117.745 57.1292 119.244 60.0894 119.244C61.7875 119.244 64.5245 118.252 65.2325 115.421L65.3941 114.242H65.4928C65.6108 117.426 68.0644 119.55 71.6966 119.55C75.9548 119.55 79.4113 116.518 79.4113 112.779C79.4113 110.723 77.6888 109.052 75.5661 109.052H75.0941C75.0941 109.614 75.57 110.067 76.1561 110.067C77.717 110.067 78.9867 111.281 78.9867 112.779C78.9867 114.419 77.5592 115.752 75.8021 115.752C74.3862 115.752 73.4435 114.829 73.4435 113.44V106.033H79.3176V105.396H73.1369V105.373C73.3255 105.278 73.4435 104.877 73.4435 104.382V99.2637H73.2075V102.024C73.2075 102.535 72.4251 105.397 70.2819 105.397H68.748V106.034H71.603V112.828C71.603 114.837 73.2819 116.178 75.8021 116.178C77.1155 116.178 78.2672 115.518 78.897 114.526C78.0081 117.039 75.2557 118.866 72.0044 118.866C68.7531 118.866 66.8139 116.912 66.8139 113.984V109.265L66.8126 109.268Z" fill="#231F20"/>
<path d="M94.3194 118.633H93.9179C92.7854 118.633 92.6443 118.515 92.6443 117.382V106.508C92.6443 106.083 92.6674 105.682 92.7392 105.257V105.069L89.0826 105.163V105.376H89.4841C90.6166 105.376 90.7577 105.494 90.7577 106.627V112.808C90.7577 116.417 89.0711 118.823 86.5354 118.823C85.1477 118.823 84.2243 117.486 84.2243 115.473V104.503H84.0357V104.598C84.0357 105.561 82.8327 105.848 81.8656 105.848H80.5215V106.061H81.6296C82.0901 106.061 82.3376 106.32 82.3376 106.769V115.687C82.3376 117.826 83.9306 119.249 86.3238 119.249C88.5414 119.249 90.5229 117.833 91.018 114.436H91.2309V117.739C91.2309 118.164 91.2078 118.612 91.136 119.083V119.272C92.0595 119.059 93.1881 118.895 94.3206 118.847V118.634L94.3194 118.633Z" fill="#231F20"/>
<path d="M97.1038 117.595C97.1038 118.421 96.6793 118.845 95.8533 118.845H95.0274V119.058H101.703V118.87H100.217C99.3907 118.87 98.943 118.445 98.943 117.619V112.169C98.943 108.206 100.548 105.564 102.929 105.564V105.587C102.834 105.728 102.764 105.918 102.764 106.13C102.764 106.695 103.259 107.192 103.826 107.192C104.393 107.192 104.863 106.697 104.863 106.13C104.863 105.658 104.557 105.281 104.155 105.138C103.778 104.997 103.377 104.95 102.929 104.95C100.971 104.95 99.3547 106.636 98.7301 109.55H98.5416V109.503C98.6481 109.173 98.7301 108.134 98.7301 107.333V104.243H98.5416V104.338C98.5416 105.305 97.5745 105.872 96.6306 106.061L94.8145 106.438L94.8375 106.579L96.2291 106.461C96.2612 106.457 96.292 106.457 96.324 106.457C96.7922 106.457 97.1026 106.795 97.1026 107.216V117.596L97.1038 117.595Z" fill="#231F20"/>
<path d="M111.829 111.308L118.297 111.39C118.698 111.39 119.02 111.084 119.02 110.707V110.589C119.02 107.219 116.528 104.974 112.776 104.974C108.817 104.974 105.597 108.135 105.597 112.051C105.597 116.368 108.443 119.246 112.705 119.246C115.657 119.246 117.926 117.866 119.043 115.578L118.685 115.342C117.648 117.524 115.501 118.822 112.705 118.822C109.909 118.822 107.601 115.622 107.601 111.674C107.601 107.726 109.638 105.398 112.682 105.398C115.316 105.398 117.069 107.475 117.069 110.589C117.069 110.73 117.022 110.802 116.881 110.802H111.825C110.291 110.802 109.046 111.894 109.046 113.244C109.046 113.83 109.497 114.306 110.06 114.306V112.961C110.06 112.05 110.85 111.31 111.829 111.31V111.308Z" fill="#231F20"/>
<path d="M14.0283 139.311H20.7515V139.098H19.2176C18.0851 139.098 17.944 138.98 17.944 137.847V131.478H18.888C20.7913 131.478 21.8135 132.351 21.8135 133.979V134.946H22.0264V127.138H21.8135V128.554C21.8135 130.819 20.209 131.055 18.888 131.055H17.944V124.025C17.944 123.506 17.708 123.081 17.4246 122.799V122.776H20.2796C22.5446 122.776 24.4081 123.649 24.5492 126.196L24.6441 127.848H25.0687L24.6211 120.937L24.4081 120.952L24.5031 122.564H24.48C24.3145 122.399 24.2209 122.351 23.8425 122.351H14.0283V122.564H14.8543C15.9868 122.564 16.1048 122.682 16.1048 123.815V137.851C16.1048 138.984 15.9868 139.102 14.8543 139.102H14.0283V139.314V139.311Z" fill="#231F20"/>
<path d="M26.0117 131.574C26.0117 137.105 31.673 140.798 40.1661 140.798C46.6495 140.798 50.9705 138.675 50.9705 135.491C50.9705 132.856 48.5952 131.849 46.4418 131.111C44.6769 130.505 43.0917 129.908 43.0917 128.531C43.0917 126.66 44.169 125.653 46.0878 125.653C48.4233 125.653 49.5315 127.49 49.6264 129.354L49.6738 130.344L50.0984 130.324L49.8393 124.757H49.6033L49.6738 126.007C49.6969 126.337 49.7213 126.597 49.7687 126.763L49.6033 126.81C49.5802 126.74 49.3904 126.386 49.2262 126.268C48.4952 125.725 47.5037 125.23 46.0891 125.23C43.2982 125.23 41.4423 126.759 41.4423 129.052C41.4423 131.345 43.6522 132.166 45.7274 132.878C47.5319 133.499 49.2031 134.243 49.2031 135.87C49.2031 138.544 45.7043 140.329 40.4509 140.329C33.0043 140.329 28.042 136.79 28.042 131.481C28.042 127.986 30.0634 125.655 33.0979 125.655C35.7323 125.655 37.4856 127.731 37.4856 130.845C37.4856 130.986 37.4381 131.058 37.297 131.058H32.3592C30.8265 131.058 29.5798 132.151 29.5798 133.5C29.5798 134.086 30.0313 134.562 30.5943 134.562V133.218C30.5943 132.306 31.3844 131.566 32.363 131.566L38.713 131.648H38.7207C39.1414 131.648 39.4364 131.338 39.4364 130.964V130.846C39.4364 127.477 36.9431 125.231 33.1928 125.231C29.2297 125.231 26.013 128.074 26.013 131.578L26.0117 131.574Z" fill="#231F20"/>
<path d="M63.2155 120.438C62.555 120.438 62.1536 120.862 62.1536 121.475C62.1536 122.136 62.6012 122.537 63.2155 122.537C63.876 122.537 64.2531 122.09 64.2531 121.475C64.2531 120.815 63.8286 120.438 63.2155 120.438ZM56.9168 126.289H61.5879C62.0484 126.289 62.2959 126.548 62.2959 126.997V132.14C62.2959 134.149 63.9748 135.49 66.4951 135.49C67.911 135.49 69.1333 134.723 69.7271 133.607C69.0307 136.761 66.1962 139.124 62.8154 139.124C59.1434 139.124 56.6975 137.268 56.6975 134.488C56.6975 134.197 56.7642 133.879 56.9181 133.533V126.29L56.9168 126.289ZM55.0763 133.555C55.0763 137.306 58.0288 139.806 62.4601 139.806C66.8914 139.806 70.1029 136.349 70.1029 132.091C70.1029 130.035 68.3804 128.364 66.2578 128.364H65.7858C65.7858 128.922 66.2616 129.379 66.8478 129.379C68.4086 129.379 69.6784 130.593 69.6784 132.091C69.6784 133.73 68.2509 135.064 66.4938 135.064C65.0778 135.064 64.1351 134.141 64.1351 132.752V124.448H63.9466V124.543C63.9466 125.267 63.3681 125.651 62.2946 125.651H56.609V125.628C56.7975 125.533 56.9155 125.133 56.9155 124.638V119.52H56.6796V122.28C56.6796 122.79 55.8972 125.653 53.754 125.653H51.9854V126.29H55.0751V133.556L55.0763 133.555Z" fill="#231F20"/>
<path d="M69.8909 125.414V125.627H70.2449C71.0234 125.627 71.2043 126.016 71.6365 127.089L76.6372 139.521L77.9108 139.426L82.8885 127.088C83.313 126.051 83.5016 125.626 84.257 125.626H84.5404V125.413H79.3973V125.626H81.4264C82.2318 125.626 82.5512 125.948 82.5512 126.431C82.5512 126.628 82.496 126.848 82.3934 127.088L78.3828 136.737C78.175 137.232 78.1468 137.551 78.1468 137.681H77.8403C77.8403 137.338 77.6825 136.906 77.6518 136.832L73.4757 126.759C73.3346 126.357 73.0743 125.791 72.7446 125.673V125.626H74.5608V125.413H69.8896L69.8909 125.414Z" fill="#231F20"/>
<path d="M94.8738 129.211V133.976C94.8738 136.673 92.814 138.859 90.2732 138.859C88.2762 138.859 86.9475 137.585 86.9475 135.674C86.9475 133.382 88.1544 131.852 89.9667 131.852C91.3352 131.852 92.4433 132.842 92.4433 134.07V135.178C93.0012 135.178 93.4578 134.702 93.4578 134.116C93.4578 132.629 91.8931 131.426 89.9667 131.426C87.0219 131.426 85.0596 133.153 85.0596 135.744C85.0596 137.997 87.0296 139.495 89.9898 139.495C91.6879 139.495 94.4249 138.504 95.1329 135.673H95.3689C95.3804 136.042 95.4638 136.605 95.5689 137.207C95.6985 137.946 95.8165 138.749 95.8165 139.33V139.518C96.4885 139.301 97.2324 139.117 98.388 138.999L98.3649 138.786L97.9635 138.809C97.9635 138.809 97.6339 138.832 97.4915 138.832C96.7835 138.832 96.713 138.573 96.713 137.629V129.514C96.713 126.939 94.2915 125.221 90.6503 125.221C89.2343 125.221 88.1262 125.716 87.3951 126.259C87.2297 126.377 87.0411 126.731 87.018 126.801L86.8526 126.754C86.9001 126.589 86.9231 126.329 86.9475 125.999L87.018 124.748H86.7821L86.523 130.316L86.9475 130.312L87.018 128.85C87.104 127.017 88.3391 125.646 90.6747 125.646C93.1949 125.646 94.8738 127.069 94.8738 129.208" fill="#231F20"/>
<path d="M100.724 136.433C100.724 138.124 101.887 139.5 103.271 139.5C104.573 139.5 105.441 138.666 105.441 137.423C105.441 137.148 105.394 136.885 105.316 136.641L105.127 136.736C105.19 136.949 105.23 137.176 105.23 137.423C105.23 138.257 104.679 138.815 103.861 138.815C103.043 138.815 102.344 138.162 102.344 137.36C102.344 137.073 102.411 136.751 102.565 136.409V119.801H102.376V119.896C102.376 120.863 101.22 121.146 100.253 121.146H98.9092V121.359H100.017C100.478 121.359 100.725 121.618 100.725 122.067V136.433H100.724Z" fill="#231F20"/>
<mask id="mask0_1542_328" style="mask-type:luminance" maskUnits="userSpaceOnUse" x="27" y="32" width="41" height="42">
<path d="M47.2246 40.4868C45.8909 41.2075 44.6354 41.8777 43.4456 42.5355C33.9972 47.7616 28.9818 52.1288 27.0332 73.2592C28.1095 69.3525 31.0515 62.051 31.5777 61.0128C34.2956 55.6427 38.1766 50.2126 44.071 48.1086C52.9569 44.9378 61.5006 54.2108 64.2996 61.9737C64.842 63.4809 65.8707 70.199 67.3779 73.2592C67.3226 54.4692 57.7779 43.3105 52.6728 32.7334C52.6738 32.7382 53.7234 36.9757 47.2256 40.4868H47.2246Z" fill="white"/>
</mask>
<g mask="url(#mask0_1542_328)">
<path d="M67.3779 32.7334H27.0332V73.2592H67.3779V32.7334Z" fill="url(#paint0_linear_1542_328)"/>
</g>
<mask id="mask1_1542_328" style="mask-type:luminance" maskUnits="userSpaceOnUse" x="13" y="10" width="45" height="64">
<path d="M16.1711 73.3237H27.3669C27.325 73.2131 27.2897 73.1063 27.2487 72.9957C27.1505 72.5305 27.0619 72.072 26.9732 71.6144C26.1486 65.7791 24.3468 45.9232 36.291 37.1002C44.3447 31.1515 48.2628 26.8939 50.1428 24.0044C50.0865 23.2265 50.0741 22.4734 50.1361 21.7708L50.2028 21.7508C50.8072 15.0394 56.3575 11.7933 57.2946 11.2909C57.4214 11.2861 57.4939 11.2852 57.4948 11.2852L57.3614 11.2556C57.4062 11.2327 57.43 11.2213 57.43 11.2213C57.43 11.2213 57.3556 11.2222 57.2288 11.227C55.5329 10.859 53.8016 10.6846 52.0513 10.6846H52.0485C37.6314 10.6855 22.0645 22.5535 16.5467 36.3509C11.2786 49.5211 14.928 67.9669 16.173 73.3246" fill="white"/>
</mask>
<g mask="url(#mask1_1542_328)">
<path d="M57.4964 10.6846H11.2783V73.3246H57.4964V10.6846Z" fill="url(#paint1_linear_1542_328)"/>
</g>
<path fill-rule="evenodd" clip-rule="evenodd" d="M77.3491 60.5205V60.5242L77.3467 60.5254L77.3491 60.5205Z" fill="#B79A95"/>
<path fill-rule="evenodd" clip-rule="evenodd" d="M62.8018 25.4434C62.8018 25.4434 62.8062 25.4467 62.8096 25.4478C62.8062 25.4456 62.8051 25.4445 62.8018 25.4434Z" fill="#B79A95"/>
<mask id="mask2_1542_328" style="mask-type:luminance" maskUnits="userSpaceOnUse" x="26" y="11" width="44" height="63">
<path d="M67.3123 73.2612H69.5441C69.5441 73.2612 70.8539 73.2612 67.3123 58.232C63.7698 43.2029 53.9839 29.7324 52.6702 22.6893C51.3575 15.6461 57.0956 11.2236 57.0956 11.2236C57.0956 11.2236 49.0133 15.1504 49.8751 24.2975C47.9246 27.1794 44.0045 31.3502 36.2159 37.1026C22.1296 47.5071 27.1622 73.2612 27.1622 73.2612C29.3567 49.47 35.4313 46.9304 47.3536 40.4888C52.4777 37.7194 52.9086 34.5 52.8609 33.2597C58.0232 43.6834 67.258 54.7819 67.3123 73.2612Z" fill="white"/>
</mask>
<g mask="url(#mask2_1542_328)">
<path d="M70.8533 11.2217H22.1289V73.2592H70.8533V11.2217Z" fill="url(#paint2_linear_1542_328)"/>
</g>
<mask id="mask3_1542_328" style="mask-type:luminance" maskUnits="userSpaceOnUse" x="52" y="5" width="40" height="69">
<path d="M57.0308 11.2216C57.0117 11.2359 51.2956 15.6555 52.6064 22.6872C53.9192 29.7304 63.706 43.2009 67.2485 58.23C70.7901 73.2592 69.4803 73.2592 69.4803 73.2592H78.6436C77.1631 69.5498 76.8609 65.1797 77.349 60.5228H77.348L77.349 60.5199C77.5587 58.5122 77.9143 56.4521 78.391 54.3671C80.8925 43.3839 86.6487 31.7381 91.2399 23.7597C87.5267 23.6196 76.737 5.00593 66.2771 5.00879C63.0959 5.00879 59.9432 6.7324 57.0318 11.2216H57.0308Z" fill="white"/>
</mask>
<g mask="url(#mask3_1542_328)">
<path d="M91.2392 5.00781H51.2959V73.261H91.2392V5.00781Z" fill="url(#paint3_linear_1542_328)"/>
</g>
<mask id="mask4_1542_328" style="mask-type:luminance" maskUnits="userSpaceOnUse" x="60" y="0" width="46" height="63">
<path d="M66.5688 0.929293C64.3409 1.05418 62.132 1.38975 60.0166 1.89215C60.0166 1.89215 62.8175 3.01707 64.6669 7.69408C66.2532 11.7038 67.83 15.763 69.7853 19.603C69.9264 19.8804 70.078 20.175 70.2153 20.4238C72.7311 24.9931 76.4367 29.5195 81.4178 31.388C78.8104 31.7998 75.7312 30.3851 73.5548 29.0419C74.7064 35.9277 79.4091 44.377 86.4408 47.4896C83.2053 47.1722 79.1412 45.5267 76.7646 42.8002C79.2594 48.7909 86.8355 52.9636 88.4914 54.1629C85.8221 54.3278 84.763 55.3603 84.763 55.3603C89.9424 56.2459 93.9406 59.5416 98.1105 62.7447L98.7454 62.2385C100.104 58.8494 102.885 56.3498 105.765 54.303C105.765 54.303 103.984 54.2029 102.073 54.5051C103.364 51.1809 104.221 48.0225 104.191 44.4457C104.132 37.5875 102.847 30.8722 100.558 24.3353C100.709 29.1839 100.548 34.3767 98.5776 38.8849C99.5614 30.5824 98.7225 22.7623 94.4926 15.416C94.9721 19.0167 94.4202 22.5774 94.4202 22.5774C94.4831 19.5935 93.9254 15.5905 91.9711 13.2033C93.1808 16.5648 93.3334 20.3218 92.0654 23.688C91.8614 16.5466 89.7308 9.85145 83.865 5.47856C79.4768 2.20675 74.0028 0.873047 68.5183 0.873047C67.8682 0.873047 67.2171 0.892113 66.5678 0.928339L66.5688 0.929293Z" fill="white"/>
</mask>
<g mask="url(#mask4_1542_328)">
<path d="M105.766 0.875977H60.0166V62.7477H105.766V0.875977Z" fill="url(#paint4_linear_1542_328)"/>
</g>
<path fill-rule="evenodd" clip-rule="evenodd" d="M83.1797 10.2807C84.9424 12.4934 86.2666 16.0378 86.3295 18.8864C86.3924 21.7244 86.075 24.9657 86.8748 27.0926C88.7004 31.946 90.7377 36.8451 92.3831 41.7137C94.9523 49.3107 98.1345 58.6152 100.589 63.8384C100.02 63.9776 97.6092 64.8671 97.0401 65.0034C95.1602 56.9564 91.9122 41.4144 86.8129 30.4407C84.9415 26.4129 83.2493 26.2098 81.6754 25.6273C78.0976 24.3041 74.596 21.9608 72.5292 18.9398C70.3413 15.7404 69.1011 12.4019 67.9914 8.51706C67.0829 5.33487 65.5146 3.65607 65.5146 3.65607C65.6739 3.64367 65.834 3.63319 65.9942 3.62461C72.1727 3.27664 79.1806 5.25956 83.1797 10.2817" fill="#231F20"/>
<mask id="mask5_1542_328" style="mask-type:luminance" maskUnits="userSpaceOnUse" x="69" y="5" width="16" height="18">
<path d="M72.1335 5.94043H72.1211C71.9952 5.94043 71.8722 5.94424 71.754 5.95092C70.9218 5.99763 70.2907 6.20259 69.9818 6.5496C68.7377 7.94813 69.4861 13.0646 73.2765 17.6482C75.3023 20.0973 80.1385 23.9134 82.8154 22.0783C85.8499 19.9972 84.5972 14.3812 81.6705 10.6756C79.0613 7.37423 74.7866 5.94138 72.1335 5.94138" fill="white"/>
</mask>
<g mask="url(#mask5_1542_328)">
<path d="M85.8495 5.94043H68.7373V23.9134H85.8495V5.94043Z" fill="url(#paint5_linear_1542_328)"/>
</g>
<mask id="mask6_1542_328" style="mask-type:luminance" maskUnits="userSpaceOnUse" x="73" y="9" width="11" height="13">
<path d="M76.2299 9.39746H76.2195C76.1451 9.39746 76.0717 9.39937 75.9983 9.40413C75.3319 9.44131 74.6979 9.64246 74.1364 10.0314C72.3909 11.2383 73.1049 15.2251 75.1317 17.9059C77.0479 20.4408 80.273 21.744 82.05 20.7115C84.4762 19.3025 83.2045 14.7551 81.6753 12.6531C80.2272 10.6635 78.1194 9.39937 76.2299 9.39937" fill="white"/>
</mask>
<g mask="url(#mask6_1542_328)">
<path d="M84.474 9.39746H72.3887V21.743H84.474V9.39746Z" fill="url(#paint6_linear_1542_328)"/>
</g>
<path fill-rule="evenodd" clip-rule="evenodd" d="M104.38 67.6302C103.34 73.3788 103.589 77.7583 103.589 77.7583C103.589 77.7583 100.616 73.7887 96.5869 70.5074C96.5869 70.5074 97.5412 68.4253 97.0121 65.9324L99.0884 65.1659L101.165 64.3994C102.334 66.6559 104.38 67.6302 104.38 67.6302Z" fill="#231F20"/>
<path fill-rule="evenodd" clip-rule="evenodd" d="M98.9735 69.1982C99.25 69.9723 100.089 70.3718 100.848 70.0915C101.607 69.8112 101.997 68.957 101.721 68.1839C101.445 67.4107 100.606 67.0103 99.8468 67.2906C99.0879 67.5709 98.6971 68.4251 98.9735 69.1982Z" fill="#127DC2"/>
<path fill-rule="evenodd" clip-rule="evenodd" d="M101.475 64.2842L96.3939 66.1604L95.8076 64.5207L100.889 62.6445L101.475 64.2842Z" fill="#43535B"/>
<path d="M19.1681 153.571C19.335 152.716 19.7 151.986 20.2632 151.381C20.8265 150.755 21.494 150.244 22.2658 149.848C23.0585 149.431 23.9137 149.128 24.8316 148.94C25.7494 148.753 26.6464 148.659 27.5225 148.659C28.0649 148.659 28.5864 148.69 29.087 148.753C29.5876 148.815 30.0465 148.919 30.4637 149.065C31.173 149.295 31.8405 149.66 32.4663 150.161C33.0921 150.64 33.6136 151.235 34.0308 151.944C34.448 152.633 34.7192 153.425 34.8443 154.322C34.9904 155.219 34.9382 156.179 34.6879 157.201C34.3333 158.619 33.7596 159.756 32.9669 160.611C32.1951 161.446 31.319 162.103 30.3386 162.583C29.379 163.063 28.3673 163.428 27.3035 163.678C26.2605 163.907 25.2905 164.126 24.3935 164.335C23.5174 164.523 22.7664 164.752 22.1406 165.023C21.5357 165.274 21.1811 165.67 21.0768 166.212H34.6566V169.122C34.6566 169.706 34.448 170.207 34.0308 170.624C33.6136 171.021 33.113 171.219 32.5289 171.219H19.1994C19.0534 169.946 19.0638 168.83 19.2307 167.871C19.4184 166.89 19.7104 166.035 20.1068 165.305C20.5031 164.575 20.9829 163.939 21.5461 163.396C22.1093 162.854 22.7038 162.364 23.3296 161.926C23.9554 161.488 24.5917 161.091 25.2383 160.737C25.885 160.361 26.4899 159.975 27.0531 159.579C27.6581 159.162 28.1379 158.682 28.4925 158.14C28.8471 157.576 29.1079 157.013 29.2747 156.45C29.4416 155.866 29.525 155.292 29.525 154.729C29.525 154.166 29.4729 153.665 29.3686 153.227C29.0974 152.205 28.6698 151.36 28.0857 150.693C27.5016 150.004 26.6255 149.66 25.4574 149.66C24.915 149.66 24.4144 149.775 23.9554 150.004C23.4965 150.213 23.1523 150.557 22.9229 151.037C22.7351 151.391 22.7351 151.756 22.9229 152.132C23.1106 152.507 23.4444 152.695 23.9242 152.695C24.1119 152.695 24.3101 152.664 24.5187 152.601C24.8941 153.185 25.0715 153.759 25.0506 154.322C25.0297 154.885 24.8837 155.386 24.6125 155.824C24.3414 156.241 23.9763 156.586 23.5174 156.857C23.0585 157.107 22.5787 157.232 22.0781 157.232C21.6817 157.232 21.2854 157.149 20.889 156.982C20.5136 156.815 20.1589 156.544 19.8252 156.168C19.1994 155.48 18.9803 154.614 19.1681 153.571ZM47.891 171.688C46.1388 171.688 44.6056 171.365 43.2914 170.718C41.9772 170.071 40.8821 169.216 40.0059 168.152C39.1298 167.068 38.4727 165.837 38.0347 164.46C37.5966 163.083 37.3776 161.686 37.3776 160.267C37.3776 158.828 37.5966 157.42 38.0347 156.043C38.4727 154.666 39.1194 153.446 39.9747 152.382C40.8508 151.298 41.9459 150.432 43.2601 149.785C44.5743 149.118 46.1075 148.784 47.8597 148.784C49.6119 148.784 51.1452 149.118 52.4593 149.785C53.7735 150.432 54.8687 151.287 55.7448 152.351C56.6209 153.415 57.278 154.635 57.716 156.012C58.1541 157.389 58.3731 158.797 58.3731 160.236C58.394 161.654 58.1854 163.052 57.7473 164.429C57.3093 165.806 56.6522 167.036 55.7761 168.121C54.8999 169.185 53.8048 170.051 52.4906 170.718C51.1764 171.365 49.6432 171.688 47.891 171.688ZM47.891 149.535C47.2235 149.535 46.629 149.848 46.1075 150.474C45.586 151.078 45.1479 151.892 44.7933 152.914C44.4387 153.915 44.1675 155.063 43.9798 156.356C43.792 157.628 43.6877 158.943 43.6669 160.299C43.646 161.634 43.7086 162.948 43.8546 164.241C44.0215 165.514 44.2718 166.661 44.6056 167.683C44.9602 168.684 45.4087 169.498 45.951 170.124C46.4934 170.729 47.14 171.031 47.891 171.031C48.6211 171.031 49.2573 170.729 49.7997 170.124C50.342 169.498 50.7801 168.684 51.1139 167.683C51.4685 166.661 51.7292 165.514 51.8961 164.241C52.063 162.948 52.136 161.634 52.1151 160.299C52.0943 158.943 51.9796 157.628 51.771 156.356C51.5832 155.063 51.312 153.915 50.9574 152.914C50.6028 151.892 50.1647 151.078 49.6432 150.474C49.1426 149.848 48.5585 149.535 47.891 149.535ZM60.6333 153.571C60.8002 152.716 61.1653 151.986 61.7285 151.381C62.2917 150.755 62.9592 150.244 63.731 149.848C64.5237 149.431 65.379 149.128 66.2968 148.94C67.2146 148.753 68.1116 148.659 68.9877 148.659C69.5301 148.659 70.0516 148.69 70.5522 148.753C71.0529 148.815 71.5118 148.919 71.929 149.065C72.6382 149.295 73.3057 149.66 73.9315 150.161C74.5573 150.64 75.0788 151.235 75.496 151.944C75.9132 152.633 76.1844 153.425 76.3096 154.322C76.4556 155.219 76.4034 156.179 76.1531 157.201C75.7985 158.619 75.2249 159.756 74.4322 160.611C73.6604 161.446 72.7842 162.103 71.8038 162.583C70.8443 163.063 69.8326 163.428 68.7687 163.678C67.7257 163.907 66.7557 164.126 65.8587 164.335C64.9826 164.523 64.2317 164.752 63.6059 165.023C63.0009 165.274 62.6463 165.67 62.542 166.212H76.1218V169.122C76.1218 169.706 75.9132 170.207 75.496 170.624C75.0788 171.021 74.5782 171.219 73.9941 171.219H60.6646C60.5186 169.946 60.529 168.83 60.6959 167.871C60.8836 166.89 61.1757 166.035 61.572 165.305C61.9684 164.575 62.4481 163.939 63.0114 163.396C63.5746 162.854 64.1691 162.364 64.7949 161.926C65.4207 161.488 66.0569 161.091 66.7036 160.737C67.3502 160.361 67.9552 159.975 68.5184 159.579C69.1233 159.162 69.6031 158.682 69.9577 158.14C70.3123 157.576 70.5731 157.013 70.74 156.45C70.9068 155.866 70.9903 155.292 70.9903 154.729C70.9903 154.166 70.9381 153.665 70.8338 153.227C70.5627 152.205 70.135 151.36 69.551 150.693C68.9669 150.004 68.0908 149.66 66.9226 149.66C66.3802 149.66 65.8796 149.775 65.4207 150.004C64.9618 150.213 64.6176 150.557 64.3881 151.037C64.2004 151.391 64.2004 151.756 64.3881 152.132C64.5759 152.507 64.9096 152.695 65.3894 152.695C65.5771 152.695 65.7753 152.664 65.9839 152.601C66.3594 153.185 66.5367 153.759 66.5158 154.322C66.495 154.885 66.349 155.386 66.0778 155.824C65.8066 156.241 65.4415 156.586 64.9826 156.857C64.5237 157.107 64.0439 157.232 63.5433 157.232C63.147 157.232 62.7506 157.149 62.3543 156.982C61.9788 156.815 61.6242 156.544 61.2904 156.168C60.6646 155.48 60.4456 154.614 60.6333 153.571ZM94.9258 149.316V151.975C94.9258 152.56 94.7172 153.06 94.3001 153.477C93.8829 153.895 93.3822 154.103 92.7981 154.103L82.0344 154.072L81.0957 159.641C81.346 159.016 81.7006 158.463 82.1596 157.983C82.6185 157.503 83.14 157.107 83.7241 156.794C84.329 156.481 84.9861 156.241 85.6953 156.074C86.4046 155.908 87.1347 155.824 87.8856 155.824C89.0121 155.824 90.1281 156.022 91.2336 156.419C92.3392 156.794 93.2988 157.378 94.1123 158.171C94.9258 158.943 95.5308 159.923 95.9271 161.112C96.3443 162.301 96.4173 163.699 96.1462 165.305C95.9584 166.39 95.5621 167.339 94.9571 168.152C94.3731 168.966 93.6534 169.644 92.7981 170.186C91.9637 170.729 91.0355 171.125 90.0133 171.375C88.9912 171.646 87.9586 171.782 86.9156 171.782C85.7266 171.782 84.5793 171.605 83.4737 171.25C82.3682 170.895 81.4295 170.384 80.6576 169.717C80.2196 169.32 79.8441 168.893 79.5312 168.434C79.2392 167.975 79.0306 167.506 78.9054 167.026C78.8011 166.525 78.7803 166.045 78.8428 165.587C78.9263 165.107 79.1244 164.669 79.4373 164.272C79.7711 163.855 80.1466 163.553 80.5638 163.365C80.981 163.177 81.3982 163.083 81.8154 163.083C82.316 163.083 82.7854 163.198 83.2234 163.428C83.6823 163.636 84.0578 163.939 84.3499 164.335C84.6419 164.71 84.8088 165.159 84.8505 165.68C84.9131 166.202 84.7983 166.765 84.5063 167.37H84.3499C83.9535 167.37 83.6406 167.537 83.4112 167.871C83.2026 168.204 83.1296 168.58 83.1921 168.997C83.2547 169.394 83.4946 169.769 83.9118 170.124C84.329 170.457 84.9861 170.624 85.8831 170.624C85.9874 170.624 86.0812 170.624 86.1647 170.624C86.269 170.624 86.3733 170.614 86.4776 170.593C87.6249 170.489 88.5427 170.03 89.2311 169.216C89.9195 168.382 90.3784 167.422 90.6078 166.338C90.8582 165.232 90.8686 164.116 90.6391 162.99C90.4305 161.863 89.9925 160.956 89.325 160.267C88.8452 159.788 88.282 159.422 87.6353 159.172C87.0095 158.901 86.3316 158.765 85.6015 158.765C84.7671 158.765 83.9327 158.953 83.0983 159.329C82.2847 159.704 81.5442 160.288 80.8767 161.081C80.7724 160.997 80.6472 160.914 80.5012 160.83C80.3552 160.747 80.23 160.664 80.1257 160.58L81.5651 149.316H94.9258Z" fill="black"/>
<path d="M19.1681 153.571C19.335 152.716 19.7 151.986 20.2632 151.381C20.8265 150.755 21.494 150.244 22.2658 149.848C23.0585 149.431 23.9137 149.128 24.8316 148.94C25.7494 148.753 26.6464 148.659 27.5225 148.659C28.0649 148.659 28.5864 148.69 29.087 148.753C29.5876 148.815 30.0465 148.919 30.4637 149.065C31.173 149.295 31.8405 149.66 32.4663 150.161C33.0921 150.64 33.6136 151.235 34.0308 151.944C34.448 152.633 34.7192 153.425 34.8443 154.322C34.9904 155.219 34.9382 156.179 34.6879 157.201C34.3333 158.619 33.7596 159.756 32.9669 160.611C32.1951 161.446 31.319 162.103 30.3386 162.583C29.379 163.063 28.3673 163.428 27.3035 163.678C26.2605 163.907 25.2905 164.126 24.3935 164.335C23.5174 164.523 22.7664 164.752 22.1406 165.023C21.5357 165.274 21.1811 165.67 21.0768 166.212H34.6566V169.122C34.6566 169.706 34.448 170.207 34.0308 170.624C33.6136 171.021 33.113 171.219 32.5289 171.219H19.1994C19.0534 169.946 19.0638 168.83 19.2307 167.871C19.4184 166.89 19.7104 166.035 20.1068 165.305C20.5031 164.575 20.9829 163.939 21.5461 163.396C22.1093 162.854 22.7038 162.364 23.3296 161.926C23.9554 161.488 24.5917 161.091 25.2383 160.737C25.885 160.361 26.4899 159.975 27.0531 159.579C27.6581 159.162 28.1379 158.682 28.4925 158.14C28.8471 157.576 29.1079 157.013 29.2747 156.45C29.4416 155.866 29.525 155.292 29.525 154.729C29.525 154.166 29.4729 153.665 29.3686 153.227C29.0974 152.205 28.6698 151.36 28.0857 150.693C27.5016 150.004 26.6255 149.66 25.4574 149.66C24.915 149.66 24.4144 149.775 23.9554 150.004C23.4965 150.213 23.1523 150.557 22.9229 151.037C22.7351 151.391 22.7351 151.756 22.9229 152.132C23.1106 152.507 23.4444 152.695 23.9242 152.695C24.1119 152.695 24.3101 152.664 24.5187 152.601C24.8941 153.185 25.0715 153.759 25.0506 154.322C25.0297 154.885 24.8837 155.386 24.6125 155.824C24.3414 156.241 23.9763 156.586 23.5174 156.857C23.0585 157.107 22.5787 157.232 22.0781 157.232C21.6817 157.232 21.2854 157.149 20.889 156.982C20.5136 156.815 20.1589 156.544 19.8252 156.168C19.1994 155.48 18.9803 154.614 19.1681 153.571ZM47.891 171.688C46.1388 171.688 44.6056 171.365 43.2914 170.718C41.9772 170.071 40.8821 169.216 40.0059 168.152C39.1298 167.068 38.4727 165.837 38.0347 164.46C37.5966 163.083 37.3776 161.686 37.3776 160.267C37.3776 158.828 37.5966 157.42 38.0347 156.043C38.4727 154.666 39.1194 153.446 39.9747 152.382C40.8508 151.298 41.9459 150.432 43.2601 149.785C44.5743 149.118 46.1075 148.784 47.8597 148.784C49.6119 148.784 51.1452 149.118 52.4593 149.785C53.7735 150.432 54.8687 151.287 55.7448 152.351C56.6209 153.415 57.278 154.635 57.716 156.012C58.1541 157.389 58.3731 158.797 58.3731 160.236C58.394 161.654 58.1854 163.052 57.7473 164.429C57.3093 165.806 56.6522 167.036 55.7761 168.121C54.8999 169.185 53.8048 170.051 52.4906 170.718C51.1764 171.365 49.6432 171.688 47.891 171.688ZM47.891 149.535C47.2235 149.535 46.629 149.848 46.1075 150.474C45.586 151.078 45.1479 151.892 44.7933 152.914C44.4387 153.915 44.1675 155.063 43.9798 156.356C43.792 157.628 43.6877 158.943 43.6669 160.299C43.646 161.634 43.7086 162.948 43.8546 164.241C44.0215 165.514 44.2718 166.661 44.6056 167.683C44.9602 168.684 45.4087 169.498 45.951 170.124C46.4934 170.729 47.14 171.031 47.891 171.031C48.6211 171.031 49.2573 170.729 49.7997 170.124C50.342 169.498 50.7801 168.684 51.1139 167.683C51.4685 166.661 51.7292 165.514 51.8961 164.241C52.063 162.948 52.136 161.634 52.1151 160.299C52.0943 158.943 51.9796 157.628 51.771 156.356C51.5832 155.063 51.312 153.915 50.9574 152.914C50.6028 151.892 50.1647 151.078 49.6432 150.474C49.1426 149.848 48.5585 149.535 47.891 149.535ZM60.6333 153.571C60.8002 152.716 61.1653 151.986 61.7285 151.381C62.2917 150.755 62.9592 150.244 63.731 149.848C64.5237 149.431 65.379 149.128 66.2968 148.94C67.2146 148.753 68.1116 148.659 68.9877 148.659C69.5301 148.659 70.0516 148.69 70.5522 148.753C71.0529 148.815 71.5118 148.919 71.929 149.065C72.6382 149.295 73.3057 149.66 73.9315 150.161C74.5573 150.64 75.0788 151.235 75.496 151.944C75.9132 152.633 76.1844 153.425 76.3096 154.322C76.4556 155.219 76.4034 156.179 76.1531 157.201C75.7985 158.619 75.2249 159.756 74.4322 160.611C73.6604 161.446 72.7842 162.103 71.8038 162.583C70.8443 163.063 69.8326 163.428 68.7687 163.678C67.7257 163.907 66.7557 164.126 65.8587 164.335C64.9826 164.523 64.2317 164.752 63.6059 165.023C63.0009 165.274 62.6463 165.67 62.542 166.212H76.1218V169.122C76.1218 169.706 75.9132 170.207 75.496 170.624C75.0788 171.021 74.5782 171.219 73.9941 171.219H60.6646C60.5186 169.946 60.529 168.83 60.6959 167.871C60.8836 166.89 61.1757 166.035 61.572 165.305C61.9684 164.575 62.4481 163.939 63.0114 163.396C63.5746 162.854 64.1691 162.364 64.7949 161.926C65.4207 161.488 66.0569 161.091 66.7036 160.737C67.3502 160.361 67.9552 159.975 68.5184 159.579C69.1233 159.162 69.6031 158.682 69.9577 158.14C70.3123 157.576 70.5731 157.013 70.74 156.45C70.9068 155.866 70.9903 155.292 70.9903 154.729C70.9903 154.166 70.9381 153.665 70.8338 153.227C70.5627 152.205 70.135 151.36 69.551 150.693C68.9669 150.004 68.0908 149.66 66.9226 149.66C66.3802 149.66 65.8796 149.775 65.4207 150.004C64.9618 150.213 64.6176 150.557 64.3881 151.037C64.2004 151.391 64.2004 151.756 64.3881 152.132C64.5759 152.507 64.9096 152.695 65.3894 152.695C65.5771 152.695 65.7753 152.664 65.9839 152.601C66.3594 153.185 66.5367 153.759 66.5158 154.322C66.495 154.885 66.349 155.386 66.0778 155.824C65.8066 156.241 65.4415 156.586 64.9826 156.857C64.5237 157.107 64.0439 157.232 63.5433 157.232C63.147 157.232 62.7506 157.149 62.3543 156.982C61.9788 156.815 61.6242 156.544 61.2904 156.168C60.6646 155.48 60.4456 154.614 60.6333 153.571ZM94.9258 149.316V151.975C94.9258 152.56 94.7172 153.06 94.3001 153.477C93.8829 153.895 93.3822 154.103 92.7981 154.103L82.0344 154.072L81.0957 159.641C81.346 159.016 81.7006 158.463 82.1596 157.983C82.6185 157.503 83.14 157.107 83.7241 156.794C84.329 156.481 84.9861 156.241 85.6953 156.074C86.4046 155.908 87.1347 155.824 87.8856 155.824C89.0121 155.824 90.1281 156.022 91.2336 156.419C92.3392 156.794 93.2988 157.378 94.1123 158.171C94.9258 158.943 95.5308 159.923 95.9271 161.112C96.3443 162.301 96.4173 163.699 96.1462 165.305C95.9584 166.39 95.5621 167.339 94.9571 168.152C94.3731 168.966 93.6534 169.644 92.7981 170.186C91.9637 170.729 91.0355 171.125 90.0133 171.375C88.9912 171.646 87.9586 171.782 86.9156 171.782C85.7266 171.782 84.5793 171.605 83.4737 171.25C82.3682 170.895 81.4295 170.384 80.6576 169.717C80.2196 169.32 79.8441 168.893 79.5312 168.434C79.2392 167.975 79.0306 167.506 78.9054 167.026C78.8011 166.525 78.7803 166.045 78.8428 165.587C78.9263 165.107 79.1244 164.669 79.4373 164.272C79.7711 163.855 80.1466 163.553 80.5638 163.365C80.981 163.177 81.3982 163.083 81.8154 163.083C82.316 163.083 82.7854 163.198 83.2234 163.428C83.6823 163.636 84.0578 163.939 84.3499 164.335C84.6419 164.71 84.8088 165.159 84.8505 165.68C84.9131 166.202 84.7983 166.765 84.5063 167.37H84.3499C83.9535 167.37 83.6406 167.537 83.4112 167.871C83.2026 168.204 83.1296 168.58 83.1921 168.997C83.2547 169.394 83.4946 169.769 83.9118 170.124C84.329 170.457 84.9861 170.624 85.8831 170.624C85.9874 170.624 86.0812 170.624 86.1647 170.624C86.269 170.624 86.3733 170.614 86.4776 170.593C87.6249 170.489 88.5427 170.03 89.2311 169.216C89.9195 168.382 90.3784 167.422 90.6078 166.338C90.8582 165.232 90.8686 164.116 90.6391 162.99C90.4305 161.863 89.9925 160.956 89.325 160.267C88.8452 159.788 88.282 159.422 87.6353 159.172C87.0095 158.901 86.3316 158.765 85.6015 158.765C84.7671 158.765 83.9327 158.953 83.0983 159.329C82.2847 159.704 81.5442 160.288 80.8767 161.081C80.7724 160.997 80.6472 160.914 80.5012 160.83C80.3552 160.747 80.23 160.664 80.1257 160.58L81.5651 149.316H94.9258Z" fill="#135EB7"/>
<defs>
<linearGradient id="paint0_linear_1542_328" x1="46.2236" y1="52.4529" x2="64.9269" y2="62.805" gradientUnits="userSpaceOnUse">
<stop stop-color="#0A509F"/>
<stop offset="0.34" stop-color="#234499"/>
<stop offset="1" stop-color="#533090"/>
</linearGradient>
<linearGradient id="paint1_linear_1542_328" x1="44.3739" y1="19.499" x2="24.6392" y2="63.9677" gradientUnits="userSpaceOnUse">
<stop stop-color="#27B7EA"/>
<stop offset="0.53" stop-color="#1687C8"/>
<stop offset="1" stop-color="#075BA8"/>
</linearGradient>
<linearGradient id="paint2_linear_1542_328" x1="67.633" y1="42.2409" x2="52.9108" y2="42.2409" gradientUnits="userSpaceOnUse">
<stop stop-color="#D8599F"/>
<stop offset="0.55" stop-color="#9754A0"/>
<stop offset="1" stop-color="#6851A2"/>
</linearGradient>
<linearGradient id="paint3_linear_1542_328" x1="59.9378" y1="-5.61412" x2="82.993" y2="85.4483" gradientUnits="userSpaceOnUse">
<stop stop-color="#D8599F"/>
<stop offset="1" stop-color="#8F4199"/>
</linearGradient>
<linearGradient id="paint4_linear_1542_328" x1="93.0989" y1="10.1013" x2="72.4479" y2="54.0257" gradientUnits="userSpaceOnUse">
<stop stop-color="#27B7EA"/>
<stop offset="0.61" stop-color="#1687C8"/>
<stop offset="1" stop-color="#0B67B2"/>
</linearGradient>
<linearGradient id="paint5_linear_1542_328" x1="70.5791" y1="7.04343" x2="83.0572" y2="21.6951" gradientUnits="userSpaceOnUse">
<stop stop-color="#D8599F"/>
<stop offset="1" stop-color="#8F4199"/>
</linearGradient>
<linearGradient id="paint6_linear_1542_328" x1="80.164" y1="18.9336" x2="76.5499" y2="11.919" gradientUnits="userSpaceOnUse">
<stop stop-color="#F48220"/>
<stop offset="1" stop-color="#FEDD42"/>
</linearGradient>
</defs>
</svg>
