<svg width="409" height="115" viewBox="0 0 409 115" fill="none" xmlns="http://www.w3.org/2000/svg">
<mask id="mask0_1392_6221" style="mask-type:luminance" maskUnits="userSpaceOnUse" x="19" y="47" width="61" height="61">
<path d="M49.9363 58.9875C47.9547 60.0583 46.0893 61.0541 44.3216 62.0314C30.2835 69.7962 22.8317 76.2848 19.9365 107.68C21.5357 101.875 25.9067 91.0269 26.6886 89.4844C30.7268 81.5057 36.493 73.4378 45.2508 70.3118C58.4532 65.6008 71.1471 79.3783 75.3058 90.9122C76.1117 93.1515 77.64 103.133 79.8794 107.68C79.7972 79.7621 65.616 63.1829 58.0311 47.4678C58.0325 47.4749 59.592 53.7708 49.9377 58.9875H49.9363Z" fill="white"/>
</mask>
<g mask="url(#mask0_1392_6221)">
<path d="M79.8794 47.4678H19.9365V107.68H79.8794V47.4678Z" fill="url(#paint0_linear_1392_6221)"/>
</g>
<mask id="mask1_1392_6221" style="mask-type:luminance" maskUnits="userSpaceOnUse" x="0" y="14" width="66" height="94">
<path d="M3.79634 107.769H20.4308C20.3684 107.605 20.316 107.446 20.2551 107.282C20.1092 106.591 19.9775 105.91 19.8458 105.23C18.6206 96.5598 15.9435 67.0586 33.6899 53.9497C45.6558 45.1112 51.4773 38.7855 54.2704 34.4923C54.1869 33.3365 54.1685 32.2176 54.2605 31.1737L54.3597 31.1439C55.2577 21.1723 63.5041 16.3494 64.8964 15.603C65.0848 15.5959 65.1924 15.5945 65.1939 15.5945L64.9956 15.5506C65.0621 15.5166 65.0975 15.4996 65.0975 15.4996C65.0975 15.4996 64.9871 15.501 64.7987 15.5081C62.2789 14.9614 59.7067 14.7021 57.1061 14.7021H57.1019C35.6814 14.7036 12.5526 32.3366 4.35441 52.8364C-3.47273 72.4042 1.94933 99.8105 3.79917 107.771" fill="white"/>
</mask>
<g mask="url(#mask1_1392_6221)">
<path d="M65.187 14.7051H-3.48242V107.774H65.187V14.7051Z" fill="url(#paint1_linear_1392_6221)"/>
</g>
<path fill-rule="evenodd" clip-rule="evenodd" d="M94.6937 88.748V88.7559L94.6885 88.7585L94.6937 88.748Z" fill="#B79A95"/>
<path fill-rule="evenodd" clip-rule="evenodd" d="M73.0762 36.6357C73.0762 36.6357 73.0853 36.6426 73.0922 36.6449C73.0853 36.6403 73.083 36.638 73.0762 36.6357Z" fill="#B79A95"/>
<mask id="mask2_1392_6221" style="mask-type:luminance" maskUnits="userSpaceOnUse" x="18" y="15" width="66" height="93">
<path d="M79.7748 107.682H83.0907C83.0907 107.682 85.0368 107.682 79.7748 85.3524C74.5114 63.0226 59.9719 43.0086 58.0201 32.5441C56.0696 22.0796 64.5951 15.5088 64.5951 15.5088C64.5951 15.5088 52.5867 21.343 53.8671 34.9336C50.9691 39.2154 45.1448 45.4122 33.5727 53.9589C12.6437 69.4177 20.1209 107.682 20.1209 107.682C23.3815 72.3341 32.407 68.5608 50.1207 58.99C57.7339 54.8753 58.3742 50.0921 58.3033 48.2493C65.9732 63.7364 79.6941 80.2264 79.7748 107.682Z" fill="white"/>
</mask>
<g mask="url(#mask2_1392_6221)">
<path d="M85.0396 15.5059H12.6465V107.679H85.0396V15.5059Z" fill="url(#paint2_linear_1392_6221)"/>
</g>
<mask id="mask3_1392_6221" style="mask-type:luminance" maskUnits="userSpaceOnUse" x="57" y="6" width="59" height="102">
<path d="M64.4956 15.5013C64.4673 15.5226 55.9744 22.0891 57.922 32.5366C59.8724 43.0011 74.4134 63.0151 79.6768 85.3449C84.9388 107.675 82.9926 107.675 82.9926 107.675H96.6072C94.4075 102.163 93.9585 95.6706 94.6837 88.7514H94.6823L94.6837 88.7471C94.9953 85.7642 95.5237 82.7033 96.2319 79.6056C99.9486 63.287 108.501 45.984 115.322 34.13C109.805 33.9218 93.7744 6.26626 78.2334 6.27051C73.5069 6.27051 68.8228 8.83139 64.497 15.5013H64.4956Z" fill="white"/>
</mask>
<g mask="url(#mask3_1392_6221)">
<path d="M115.326 6.27051H55.9795V107.679H115.326V6.27051Z" fill="url(#paint3_linear_1392_6221)"/>
</g>
<mask id="mask4_1392_6221" style="mask-type:luminance" maskUnits="userSpaceOnUse" x="68" y="0" width="69" height="93">
<path d="M78.6725 0.218334C75.3624 0.403885 72.0805 0.902464 68.9375 1.64892C68.9375 1.64892 73.0989 3.32029 75.8468 10.2692C78.2037 16.2267 80.5465 22.2578 83.4515 27.9631C83.6612 28.3753 83.8864 28.813 84.0903 29.1827C87.8283 35.9716 93.3339 42.6967 100.735 45.4729C96.8608 46.0848 92.2858 43.9828 89.0521 41.9871C90.7631 52.2179 97.7503 64.7716 108.198 69.3962C103.39 68.9246 97.3523 66.4798 93.8211 62.4289C97.5279 71.3296 108.784 77.5293 111.245 79.3112C107.279 79.5562 105.705 81.0902 105.705 81.0902C113.4 82.406 119.341 87.3026 125.536 92.0618L126.48 91.3096C128.498 86.2743 132.63 82.5604 136.909 79.5194C136.909 79.5194 134.263 79.3707 131.424 79.8197C133.342 74.8806 134.615 70.188 134.57 64.8736C134.482 54.6839 132.573 44.7066 129.172 34.9942C129.397 42.1982 129.158 49.9134 126.23 56.6116C127.692 44.276 126.446 32.6572 120.161 21.7422C120.873 27.092 120.053 32.3824 120.053 32.3824C120.147 27.949 119.318 22.0014 116.414 18.4547C118.212 23.449 118.439 29.0311 116.555 34.0325C116.252 23.4221 113.086 13.4746 104.371 6.97749C97.8509 2.11634 89.7178 0.134766 81.5691 0.134766C80.6031 0.134766 79.6357 0.163093 78.6711 0.216917L78.6725 0.218334Z" fill="white"/>
</mask>
<g mask="url(#mask4_1392_6221)">
<path d="M136.91 0.134766H68.9375V92.0618H136.91V0.134766Z" fill="url(#paint4_linear_1392_6221)"/>
</g>
<path fill-rule="evenodd" clip-rule="evenodd" d="M103.355 14.1031C105.974 17.3906 107.941 22.6569 108.034 26.8892C108.128 31.1058 107.656 35.9217 108.845 39.0817C111.557 46.2927 114.584 53.5717 117.029 60.8053C120.846 72.0928 125.574 85.917 129.221 93.6776C128.376 93.8844 124.794 95.2059 123.948 95.4084C121.155 83.4524 116.329 60.3606 108.753 44.0562C105.972 38.0718 103.458 37.7701 101.12 36.9047C95.8037 34.9387 90.6012 31.4571 87.5304 26.9685C84.2797 22.215 82.437 17.2547 80.7883 11.4828C79.4384 6.75476 77.1084 4.26045 77.1084 4.26045C77.3449 4.24203 77.5829 4.22645 77.8209 4.2137C87.0007 3.69671 97.4128 6.64286 103.355 14.1046" fill="#231F20"/>
<mask id="mask5_1392_6221" style="mask-type:luminance" maskUnits="userSpaceOnUse" x="82" y="7" width="24" height="26">
<path d="M86.9361 7.66016H86.9177C86.7307 7.66016 86.548 7.66582 86.3723 7.67574C85.1358 7.74514 84.1981 8.04967 83.7392 8.56525C81.8908 10.6431 83.0027 18.2451 88.6344 25.0552C91.6443 28.694 98.8298 34.3639 102.807 31.6373C107.316 28.5453 105.454 20.2011 101.106 14.6955C97.2292 9.79045 90.878 7.66157 86.9361 7.66157" fill="white"/>
</mask>
<g mask="url(#mask5_1392_6221)">
<path d="M107.319 7.66016H81.8945V34.3639H107.319V7.66016Z" fill="url(#paint5_linear_1392_6221)"/>
</g>
<mask id="mask6_1392_6221" style="mask-type:luminance" maskUnits="userSpaceOnUse" x="88" y="12" width="16" height="19">
<path d="M93.0237 12.791H93.0081C92.8977 12.791 92.7886 12.7938 92.6795 12.8009C91.6895 12.8562 90.7475 13.155 89.9133 13.7329C87.3198 15.5261 88.3807 21.4496 91.392 25.4326C94.239 29.1988 99.0307 31.1351 101.671 29.6011C105.276 27.5076 103.386 20.7513 101.114 17.6281C98.9628 14.672 95.8311 12.7938 93.0237 12.7938" fill="white"/>
</mask>
<g mask="url(#mask6_1392_6221)">
<path d="M105.275 12.791H87.3193V31.1336H105.275V12.791Z" fill="url(#paint6_linear_1392_6221)"/>
</g>
<path fill-rule="evenodd" clip-rule="evenodd" d="M134.853 99.3129C133.307 107.854 133.677 114.361 133.677 114.361C133.677 114.361 129.259 108.463 123.273 103.588C123.273 103.588 124.691 100.494 123.905 96.7903L126.99 95.6515L130.075 94.5127C131.812 97.8654 134.853 99.3129 134.853 99.3129Z" fill="#231F20"/>
<path fill-rule="evenodd" clip-rule="evenodd" d="M126.816 101.644C127.227 102.794 128.474 103.388 129.601 102.971C130.729 102.555 131.309 101.286 130.899 100.137C130.488 98.9881 129.241 98.3932 128.114 98.8097C126.986 99.2261 126.406 100.495 126.816 101.644Z" fill="#127DC2"/>
<path fill-rule="evenodd" clip-rule="evenodd" d="M130.532 94.3444L122.982 97.132L122.111 94.6957L129.661 91.9082L130.532 94.3444Z" fill="#43535B"/>
<path d="M161.122 3.32259C161.306 2.85716 161.928 2.60613 163.1 2.60613C171.3 2.60613 174.96 7.2317 174.96 13.6876C174.96 20.7528 171.225 24.4449 163.1 24.4449C161.635 24.4449 161.013 24.0867 161.013 22.9022V4.07564L161.122 3.32259ZM157.682 21.7909C157.682 24.4083 157.279 24.8737 154.35 25.1248V25.8072H164.672C169.101 25.8072 172.579 24.6593 174.922 22.5074L175.435 21.9687C177.594 19.7801 178.582 16.7679 178.582 13.3974C178.582 5.83018 173.348 1.24121 164.123 1.24121H154.348V1.95766C154.641 1.99427 154.898 1.99427 155.079 2.02827L156.398 2.31589L156.948 2.60353C157.46 2.96175 157.679 3.85862 157.679 5.29415V21.7883L157.682 21.7909Z" fill="#135EB7"/>
<path d="M184.626 17.7329C184.553 17.3747 184.553 16.9093 184.553 16.4072C184.553 13.8604 185.541 10.0611 188.544 10.0611H188.728C190.669 10.0611 192.244 10.9946 192.719 14.2212L184.628 17.7355L184.626 17.7329ZM196.119 19.7411C194.326 22.3585 192.716 23.6136 190.263 23.6136C185.723 23.577 184.991 20.2431 184.844 19.2024L196.998 13.7872V12.8537C196.741 12.9243 196.448 12.9243 196.229 12.9243C195.826 12.9243 195.57 12.8537 195.423 12.7805C194.582 10.2337 192.604 8.72754 189.566 8.72754C184.807 8.72754 182.026 12.8145 181.988 17.8715C182.098 22.4605 184.698 26.1552 188.76 26.1552C192.31 26.1552 194.838 24.0032 196.41 19.9869L196.117 19.7358L196.119 19.7411Z" fill="#135EB7"/>
<path d="M198.498 2.42541H199.67C200.914 2.42541 201.464 2.96406 201.464 4.6846V22.6143C201.464 24.5152 200.988 25.0879 198.498 25.2683V25.8069H207.064V25.2683C204.757 25.1245 204.173 24.8734 204.173 22.7215V0.310048L204.101 0.273438L198.501 1.88676V2.42541H198.498Z" fill="#135EB7"/>
<path d="M213.437 13.1827C214.646 11.9276 216.44 10.7431 217.684 10.7431C219.624 10.7431 220.649 12.0348 220.649 14.6522V22.039C220.649 24.442 220.356 25.0512 218.049 25.2657V25.8043H225.59V25.2657C223.503 24.8708 223.321 24.6564 223.321 22.039V14.6156C223.321 10.7065 221.856 8.73491 219.037 8.73491L213.437 11.8544V0.344042L213.399 0.273438L208.312 1.88676V2.42541H209.153C209.628 2.63982 210.69 2.89084 210.69 4.25315V22.039C210.69 24.6564 210.543 24.944 208.274 25.2657V25.8043H215.962V25.2657C213.84 25.0146 213.437 24.727 213.437 22.039V13.1827Z" fill="#135EB7"/>
<path d="M231.153 0.458984C230.128 0.458984 229.506 1.35586 229.506 2.35995C229.506 3.61505 230.384 4.26089 231.153 4.26089C232.287 4.26089 232.946 3.36403 232.946 2.35995L232.837 1.60688C232.509 0.853822 231.959 0.458984 231.153 0.458984ZM227.309 10.7874V11.3261H227.968C229.177 11.3261 230.128 11.7915 230.128 13.2636V22.0494C230.128 24.6668 229.871 25.1322 227.162 25.276V25.8147H235.728V25.276C233.237 25.1322 232.909 24.8106 232.909 22.0494V8.85247L232.837 8.74527L227.309 10.79V10.7874Z" fill="#135EB7"/>
<path d="M269.585 6.6963C269.585 2.93099 269.913 2.32175 273.063 1.96352V1.24707H264.863V1.96352C267.644 2.21454 268.304 2.86039 268.304 6.6963V16.7005C268.304 23.2976 265.338 24.7332 261.238 24.7332C256.772 24.7332 254.76 22.6884 254.76 17.2025V5.29739C254.76 2.64337 255.016 2.24853 258.128 1.96352V1.24707H248.062V1.96352C251.065 2.10734 251.431 2.57277 251.431 5.29739V16.8809C251.431 23.193 254.322 26.3125 260.4 26.3125C266.478 26.3125 269.588 23.4807 269.588 16.4155V6.69891L269.585 6.6963Z" fill="#135EB7"/>
<path d="M273.833 11.07H274.674C275.809 11.07 276.212 11.4649 276.212 13.2586V22.4758C276.212 24.5205 275.846 25.0932 273.868 25.2736V25.8123H281.371V25.2736C279.687 25.1664 278.918 24.7349 278.918 23.336V12.9004C279.65 11.9669 281.518 10.785 282.8 10.785H282.946C284.85 10.785 285.837 12.0035 285.837 14.4065V22.1515C285.837 24.3741 285.397 25.0932 283.384 25.271V25.8096H290.778V25.271C289.131 25.0906 288.472 24.7689 288.472 22.7974V12.2545C288.472 10.3536 286.641 8.74023 284.775 8.74023H284.446L278.881 11.7525V8.81084L278.734 8.74023L273.828 10.4242V11.07H273.833Z" fill="#135EB7"/>
<path d="M296.341 0.458984C295.316 0.458984 294.694 1.35586 294.694 2.35995C294.694 3.61505 295.572 4.26089 296.341 4.26089C297.476 4.26089 298.135 3.36403 298.135 2.35995L298.025 1.60688C297.697 0.853822 297.147 0.458984 296.341 0.458984ZM292.497 10.7874V11.3261H293.157C294.366 11.3261 295.316 11.7915 295.316 13.2636V22.0494C295.316 24.6668 295.06 25.1322 292.351 25.276V25.8147H300.916V25.276C298.426 25.1322 298.098 24.8106 298.098 22.0494V8.85247L298.025 8.74527L292.497 10.79V10.7874Z" fill="#135EB7"/>
<path d="M313.335 9.09375V9.66639C314.544 9.8102 315.091 10.1684 315.091 10.8509C315.091 11.2091 315.054 11.604 314.907 11.9622L311.063 21.5716L307.182 12.0694C306.926 11.5673 306.816 11.1019 306.816 10.7071C306.816 10.0978 307.257 9.84681 308.501 9.66639V9.09375H301.582V9.66639C302.935 9.8102 303.12 9.84681 304.951 13.9337L309.673 25.3735C309.891 25.9827 310.038 26.307 310.185 26.307C310.332 26.307 310.66 25.6977 311.026 24.4792L315.785 12.5374C316.882 10.1711 316.957 9.84681 318.164 9.66901V9.09637H313.332L313.335 9.09375Z" fill="#135EB7"/>
<path d="M322.226 17.7329C322.154 17.3747 322.154 16.9093 322.154 16.4072C322.154 13.8604 323.142 10.0611 326.145 10.0611H326.329C328.269 10.0611 329.844 10.9946 330.319 14.2212L322.229 17.7355L322.226 17.7329ZM333.72 19.7411C331.926 22.3585 330.317 23.6136 327.864 23.6136C323.323 23.577 322.592 20.2431 322.445 19.2024L334.598 13.7872V12.8537C334.342 12.9243 334.048 12.9243 333.829 12.9243C333.426 12.9243 333.17 12.8537 333.023 12.7805C332.182 10.2337 330.205 8.72754 327.167 8.72754C322.408 8.72754 319.626 12.8145 319.589 17.8715C319.698 22.4605 322.298 26.1552 326.361 26.1552C329.911 26.1552 332.439 24.0032 334.011 19.9869L333.717 19.7358L333.72 19.7411Z" fill="#135EB7"/>
<path d="M336.724 11.321H337.749C338.737 11.321 339.359 11.8231 339.359 13.3998V22.7242C339.359 24.5519 339.102 24.8029 336.649 25.271V25.8096H345.325V25.271C342.909 25.2004 342.103 24.6983 342.103 22.4732V14.1189C342.103 12.7932 343.969 11.1066 344.849 11.1066C345.362 11.1066 346.496 12.5422 346.715 14.3333L349.462 11.5015C349.352 10.2464 347.962 8.74023 346.79 8.74023L342.105 12.2545V8.81084L342.068 8.74023L336.724 10.7484V11.321Z" fill="#135EB7"/>
<path d="M360.738 9.4933C359.932 9.4933 358.504 8.77685 357.114 8.77685C354.076 8.77685 352.245 10.8216 352.245 13.3318C352.245 15.3034 353.379 16.9167 356.492 18.6738L358.688 19.929C360.042 20.682 360.738 21.6155 360.738 22.7268C360.738 24.4473 359.42 25.3808 357.445 25.3808C354.845 25.3808 352.795 24.0891 351.807 20.18H351.441L352.138 27.5302H353.347C354.116 26.4189 354.738 26.0606 356.203 26.0606C356.46 26.0606 356.716 26.0607 357.01 26.0973C357.266 26.0973 357.559 26.1339 357.888 26.1679C360.744 26.1679 362.941 23.9087 362.941 21.4351C362.941 19.7145 362.062 18.3522 359.866 17.0239L355.875 14.6209C354.703 14.0117 354.191 13.188 354.191 12.1107C354.191 10.4608 355.4 9.60051 357.191 9.60051C359.278 9.60051 361.291 10.819 362.169 14.1555H362.463L361.731 8.74023H361.403C361.184 8.95465 360.819 9.4933 360.744 9.4933H360.738Z" fill="#135EB7"/>
<path d="M369.598 0.458984C368.573 0.458984 367.951 1.35586 367.951 2.35995C367.951 3.61505 368.829 4.26089 369.598 4.26089C370.732 4.26089 371.392 3.36403 371.392 2.35995L371.282 1.60688C370.951 0.853822 370.404 0.458984 369.598 0.458984ZM365.754 10.7874V11.3261H366.414C367.623 11.3261 368.573 11.7915 368.573 13.2636V22.0494C368.573 24.6668 368.317 25.1322 365.607 25.276V25.8147H374.173V25.276C371.683 25.1322 371.354 24.8106 371.354 22.0494V8.85247L371.282 8.74527L365.754 10.79V10.7874Z" fill="#135EB7"/>
<path d="M380.62 9.0962V3.28613C380.473 3.42995 379.923 4.29021 379.338 5.22369C379.301 6.72981 377.032 9.42044 375.679 10.0297C375.679 10.1735 375.679 10.2441 375.716 10.3173H377.803V21.4694C377.803 24.6255 378.866 26.1656 380.988 26.1656C382.744 26.1656 384.172 25.2687 385.307 23.4044L385.051 22.9729C384.354 23.8332 383.513 24.2646 382.744 24.2646C381.316 24.2646 380.622 23.2606 380.622 20.9308V10.3173H384.466V9.09882H380.622L380.62 9.0962Z" fill="#135EB7"/>
<path d="M389.548 33.8389C391.817 33.8023 393.573 31.7601 395.479 26.4521L401.41 10.8182C401.776 10.1017 402.251 9.7775 402.985 9.6703V9.09766H398.335V9.6703C399.507 9.6703 400.091 9.95793 400.091 10.6038C400.091 10.7842 400.091 10.9986 399.982 11.213L396.138 21.4683L391.819 12.0733C391.491 11.5346 391.379 11.0326 391.379 10.6744C391.488 10.209 392.185 9.88471 393.538 9.6703V9.09766H386.254V9.6363C387.207 9.81672 387.901 10.2116 388.157 10.8208L392.513 20.2524C393.135 21.5781 394.526 24.8413 394.526 25.8114C394.526 28.4288 391.745 32.2308 389.986 32.3014H389.913C389.292 32.3014 389.035 32.8034 389.035 33.2348C389.035 33.5565 389.182 33.8441 389.51 33.8441H389.548V33.8389Z" fill="#135EB7"/>
<path d="M171.866 32.3271C170.634 32.3271 169.885 33.1031 169.885 34.2238C169.885 35.4312 170.722 36.165 171.866 36.165C173.099 36.165 173.803 35.3468 173.803 34.2238C173.803 33.0164 173.01 32.3271 171.866 32.3271ZM154.348 66.8255H182.167C182.871 66.8255 183.048 66.7388 183.357 66.4363H183.4L183.223 68.9801L183.663 69.0223L184.764 53.6287C184.764 49.8706 181.55 46.8158 177.589 46.8158H176.708C176.708 47.8356 177.596 48.6702 178.69 48.6702C181.602 48.6702 183.972 50.8904 183.972 53.6287C183.972 56.6319 181.308 59.0631 178.029 59.0631C175.387 59.0631 173.628 57.3751 173.628 54.8361V40.2185H173.276V40.392C173.276 42.1597 171.12 42.6778 169.315 42.6778H167.025V43.067H168.875C169.734 43.067 170.196 43.5406 170.196 44.3611V53.7178C170.196 57.3985 173.329 59.8414 178.032 59.8414C180.358 59.8414 182.404 58.756 183.615 57.0961L183.313 61.0934C182.99 65.2407 180.145 66.0519 175.918 66.0519H160.687V66.0097C161.216 65.4915 161.657 64.7155 161.657 63.7684V38.4555C161.657 36.3854 161.92 36.2142 164.033 36.2142H164.694V35.825H154.35V36.2142H155.891C158.005 36.2142 158.225 36.3877 158.225 38.4555V63.8551C158.225 65.9253 158.005 66.4434 155.891 66.4434H154.35V66.8326L154.348 66.8255Z" fill="black"/>
<path d="M205.719 60.9596C205.719 57.2015 202.498 54.1467 198.544 54.1467H197.664C197.664 55.1665 198.552 56.0012 199.645 56.0012C202.558 56.0012 204.927 58.2213 204.927 60.9596C204.927 63.9629 202.264 66.394 198.985 66.394C196.343 66.394 194.584 64.706 194.584 62.1694V43.0224H205.545V41.8572H194.012V41.815C194.363 41.6415 194.584 40.91 194.584 40.0051V30.6484H194.143V35.6937C194.143 36.6291 192.683 41.8595 188.684 41.8595H185.384V43.0247H191.149V61.0487C191.149 64.7295 194.282 67.1724 198.985 67.1724C202.697 67.1724 205.719 64.3919 205.719 60.962" fill="black"/>
<path d="M220.693 52.6514L232.763 52.8015C233.512 52.8015 234.113 52.2412 234.113 51.5519V51.3362C234.113 45.1774 229.46 41.0723 222.462 41.0723C215.074 41.0723 209.064 46.8513 209.064 54.0089C209.064 61.9002 214.375 67.1611 222.328 67.1611C227.837 67.1611 232.071 64.6385 234.156 60.4561L233.488 60.0247C231.552 64.0126 227.545 66.3851 222.328 66.3851C217.111 66.3851 212.805 60.5358 212.805 53.3196C212.805 46.1034 216.606 41.8483 222.285 41.8483C227.201 41.8483 230.472 45.6439 230.472 51.3362C230.472 51.5941 230.384 51.7254 230.121 51.7254H220.686C217.826 51.7254 215.5 53.7228 215.5 56.1892C215.5 57.2606 216.342 58.1304 217.393 58.1304V55.6734C217.393 54.0065 218.867 52.6538 220.693 52.6538V52.6514Z" fill="black"/>
<path d="M240.456 64.1478C240.456 65.6576 239.664 66.4336 238.123 66.4336H236.581V66.8228H249.038V66.4781H246.265C244.723 66.4781 243.888 65.7021 243.888 64.1923V54.2308C243.888 46.9865 246.882 42.157 251.326 42.157V42.1992C251.149 42.457 251.018 42.804 251.018 43.1908C251.018 44.2247 251.941 45.132 252.999 45.132C254.057 45.132 254.935 44.2271 254.935 43.1908C254.935 42.3281 254.363 41.6388 253.614 41.3786C252.911 41.1207 252.162 41.034 251.324 41.034C247.669 41.034 244.654 44.1169 243.488 49.4435H243.137V49.3567C243.335 48.7542 243.488 46.8552 243.488 45.3899V39.7422H243.137V39.9157C243.137 41.6834 241.332 42.7196 239.571 43.0642L236.182 43.7535L236.225 44.0114L238.821 43.7957C238.881 43.7887 238.939 43.7887 238.999 43.7887C239.872 43.7887 240.451 44.4076 240.451 45.1766V64.1501L240.456 64.1478Z" fill="black"/>
<path d="M278.213 48.9272C278.213 44.2196 273.695 41.078 266.9 41.078C264.258 41.078 262.19 41.983 260.826 42.9747C260.517 43.1904 260.165 43.8374 260.122 43.9664L259.814 43.8796C259.902 43.5772 259.945 43.1036 259.991 42.4988L260.122 40.2129H259.682L259.198 50.3901L259.991 50.3831L260.122 47.7105C260.283 44.3603 262.587 41.854 266.946 41.854C271.648 41.854 274.781 44.4564 274.781 48.3645V57.0741C274.781 62.0045 270.938 65.9994 266.196 65.9994C262.47 65.9994 259.991 63.6714 259.991 60.1782C259.991 55.9887 262.243 53.1917 265.624 53.1917C268.178 53.1917 270.246 55.0016 270.246 57.2453V59.2709C271.287 59.2709 272.139 58.4011 272.139 57.3297C272.139 54.6125 269.219 52.4134 265.624 52.4134C260.129 52.4134 256.468 55.569 256.468 60.3048C256.468 64.4239 260.144 67.1622 265.668 67.1622C268.836 67.1622 273.943 65.35 275.265 60.1758L275.566 58.0189H275.75C275.971 63.8402 280.549 67.7226 287.327 67.7226C295.272 67.7226 301.722 62.1803 301.722 55.3463C301.722 51.5882 298.508 48.5334 294.547 48.5334H293.667C293.667 49.5602 294.554 50.3878 295.648 50.3878C298.561 50.3878 300.93 52.608 300.93 55.3463C300.93 58.3425 298.266 60.7807 294.988 60.7807C292.345 60.7807 290.586 59.0927 290.586 56.5537V43.0145H301.548V41.8494H290.014V41.8072C290.366 41.6337 290.586 40.9022 290.586 39.9973V30.6406H290.146V35.6858C290.146 36.6213 288.686 41.8517 284.687 41.8517H281.825V43.0169H287.152V55.4354C287.152 59.1068 290.285 61.559 294.988 61.559C297.438 61.559 299.587 60.3517 300.763 58.5394C299.104 63.1322 293.968 66.473 287.901 66.473C281.834 66.473 278.215 62.9 278.215 57.5477V48.9225L278.213 48.9272Z" fill="black"/>
<path d="M329.545 66.0454H328.796C326.682 66.0454 326.419 65.8298 326.419 63.7596V43.8812C326.419 43.1051 326.462 42.3713 326.596 41.5953V41.2507L319.773 41.4242V41.8134H320.522C322.635 41.8134 322.899 42.029 322.899 44.0992V55.397C322.899 61.9943 319.751 66.3924 315.02 66.3924C312.43 66.3924 310.707 63.9495 310.707 60.2688V40.2168H310.355V40.3903C310.355 42.151 308.111 42.6761 306.306 42.6761H303.798V43.0653H305.866C306.725 43.0653 307.187 43.5389 307.187 44.3594V60.6603C307.187 64.5708 310.159 67.1708 314.625 67.1708C318.763 67.1708 322.461 64.5825 323.384 58.3745H323.782V64.4114C323.782 65.1874 323.739 66.0079 323.605 66.8683V67.213C325.328 66.8238 327.434 66.5237 329.547 66.437V66.0478L329.545 66.0454Z" fill="black"/>
<path d="M334.743 64.1478C334.743 65.6576 333.951 66.4336 332.409 66.4336H330.868V66.8228H343.325V66.4781H340.551C339.01 66.4781 338.175 65.7021 338.175 64.1923V54.2308C338.175 46.9865 341.169 42.157 345.613 42.157V42.1992C345.436 42.457 345.304 42.804 345.304 43.1908C345.304 44.2247 346.228 45.132 347.286 45.132C348.344 45.132 349.222 44.2271 349.222 43.1908C349.222 42.3281 348.65 41.6388 347.901 41.3786C347.197 41.1207 346.448 41.034 345.613 41.034C341.958 41.034 338.943 44.1169 337.777 49.4435H337.426V49.3567C337.624 48.7542 337.777 46.8552 337.777 45.3899V39.7422H337.426V39.9157C337.426 41.6834 335.621 42.7196 333.86 43.0642L330.471 43.7535L330.514 44.0114L333.11 43.7957C333.17 43.7887 333.228 43.7887 333.288 43.7887C334.161 43.7887 334.74 44.4076 334.74 45.1766V64.1501L334.743 64.1478Z" fill="black"/>
<path d="M362.208 52.6514L374.277 52.8015C375.026 52.8015 375.627 52.2412 375.627 51.5519V51.3362C375.627 45.1774 370.977 41.0723 363.977 41.0723C356.589 41.0723 350.579 46.8513 350.579 54.0089C350.579 61.9002 355.89 67.1611 363.843 67.1611C369.352 67.1611 373.586 64.6385 375.67 60.4561L375.003 60.0247C373.066 64.0126 369.06 66.3851 363.843 66.3851C358.625 66.3851 354.32 60.5358 354.32 53.3196C354.32 46.1034 358.12 41.8483 363.8 41.8483C368.715 41.8483 371.987 45.6439 371.987 51.3362C371.987 51.5941 371.898 51.7254 371.635 51.7254H362.201C359.339 51.7254 357.015 53.7228 357.015 56.1892C357.015 57.2606 357.857 58.1304 358.908 58.1304V55.6734C358.908 54.0065 360.382 52.6538 362.208 52.6538V52.6514Z" fill="black"/>
<path d="M154.348 108.551H166.464V108.175H163.7C161.659 108.175 161.405 107.967 161.405 105.967V94.7227H163.106C166.536 94.7227 168.378 96.2647 168.378 99.1382V100.845H168.762V87.0603H168.378V89.5601C168.378 93.5589 165.487 93.9755 163.106 93.9755H161.405V81.5648C161.405 80.6477 160.979 79.8982 160.468 79.4001V79.3593H165.614C169.696 79.3593 173.055 80.9013 173.309 85.3983L173.48 88.3147H174.245L173.438 76.1123L173.055 76.1395L173.226 78.9857H173.184C172.886 78.6936 172.717 78.6098 172.035 78.6098H154.348V78.9857H155.836C157.877 78.9857 158.09 79.194 158.09 81.1934V105.974C158.09 107.974 157.877 108.182 155.836 108.182H154.348V108.558V108.551Z" fill="black"/>
<path d="M175.947 94.8991C175.947 104.665 186.15 111.184 201.457 111.184C213.141 111.184 220.929 107.437 220.929 101.814C220.929 97.1634 216.648 95.3859 212.767 94.0817C209.586 93.0129 206.729 91.9578 206.729 89.5282C206.729 86.2245 208.671 84.447 212.129 84.447C216.338 84.447 218.335 87.6895 218.506 90.9796L218.592 92.7276L219.357 92.6937L218.89 82.8643H218.465L218.592 85.072C218.634 85.6539 218.677 86.1136 218.763 86.4057L218.465 86.4894C218.423 86.3649 218.081 85.7399 217.785 85.5316C216.468 84.5738 214.681 83.6998 212.131 83.6998C207.102 83.6998 203.757 86.3989 203.757 90.4475C203.757 94.4961 207.74 95.9452 211.48 97.2019C214.732 98.2979 217.744 99.6112 217.744 102.485C217.744 107.206 211.438 110.355 201.97 110.355C188.55 110.355 179.606 104.108 179.606 94.7361C179.606 88.5658 183.249 84.4493 188.718 84.4493C193.466 84.4493 196.626 88.1152 196.626 93.613C196.626 93.8621 196.54 93.9889 196.286 93.9889H187.387C184.625 93.9889 182.378 95.9181 182.378 98.3001C182.378 99.3349 183.191 100.175 184.206 100.175V97.802C184.206 96.192 185.63 94.8855 187.394 94.8855L198.838 95.0305H198.852C199.61 95.0305 200.142 94.4825 200.142 93.8236V93.6153C200.142 87.6669 195.648 83.7021 188.889 83.7021C181.747 83.7021 175.95 88.7198 175.95 94.9059L175.947 94.8991Z" fill="black"/>
<path d="M242.997 75.2355C241.807 75.2355 241.083 75.985 241.083 77.0673C241.083 78.2335 241.89 78.9422 242.997 78.9422C244.188 78.9422 244.867 78.152 244.867 77.0673C244.867 75.9012 244.102 75.2355 242.997 75.2355ZM231.645 85.5653H240.064C240.894 85.5653 241.34 86.0227 241.34 86.8152V95.8951C241.34 99.4411 244.366 101.81 248.908 101.81C251.46 101.81 253.662 100.455 254.733 98.4855C253.478 104.053 248.369 108.224 242.276 108.224C235.658 108.224 231.25 104.948 231.25 100.041C231.25 99.5271 231.37 98.9656 231.648 98.3542V85.5676L231.645 85.5653ZM228.328 98.3927C228.328 105.016 233.65 109.429 241.636 109.429C249.622 109.429 255.41 103.327 255.41 95.8091C255.41 92.1794 252.306 89.229 248.48 89.229H247.629C247.629 90.214 248.487 91.0201 249.543 91.0201C252.356 91.0201 254.645 93.1644 254.645 95.8091C254.645 98.7029 252.072 101.058 248.905 101.058C246.354 101.058 244.655 99.4275 244.655 96.9752V82.316H244.315V82.4836C244.315 83.7607 243.272 84.44 241.338 84.44H231.091V84.3992C231.431 84.2316 231.643 83.5252 231.643 82.6511V73.6143H231.218V78.4871C231.218 79.3883 229.808 84.4422 225.945 84.4422H222.758V85.5676H228.326V98.395L228.328 98.3927Z" fill="black"/>
<path d="M255.026 84.0208V84.3967H255.664C257.067 84.3967 257.393 85.0828 258.172 86.978L267.184 108.926L269.48 108.759L278.45 86.9758C279.216 85.1439 279.555 84.3944 280.917 84.3944H281.428V84.0186H272.159V84.3944H275.815C277.267 84.3944 277.842 84.9628 277.842 85.8164C277.842 86.1629 277.743 86.5523 277.558 86.9758L270.33 104.01C269.956 104.884 269.905 105.448 269.905 105.677H269.352C269.352 105.072 269.068 104.309 269.013 104.178L261.486 86.3938C261.232 85.6851 260.763 84.6865 260.169 84.4782V84.3944H263.442V84.0186H255.023L255.026 84.0208Z" fill="black"/>
<path d="M300.05 90.7285V99.1404C300.05 103.902 296.338 107.761 291.759 107.761C288.16 107.761 285.765 105.512 285.765 102.138C285.765 98.092 287.94 95.3907 291.206 95.3907C293.672 95.3907 295.67 97.1387 295.67 99.3057V101.262C296.675 101.262 297.498 100.422 297.498 99.3872C297.498 96.7629 294.678 94.6389 291.206 94.6389C285.899 94.6389 282.362 97.6867 282.362 102.261C282.362 106.239 285.913 108.884 291.248 108.884C294.308 108.884 299.241 107.133 300.517 102.136H300.942C300.963 102.788 301.113 103.782 301.303 104.844C301.536 106.148 301.749 107.566 301.749 108.592V108.925C302.96 108.542 304.301 108.216 306.383 108.007L306.342 107.632L305.618 107.672C305.618 107.672 305.024 107.713 304.768 107.713C303.492 107.713 303.365 107.256 303.365 105.589V91.2628C303.365 86.7161 299 83.6842 292.438 83.6842C289.886 83.6842 287.889 84.5582 286.572 85.516C286.273 85.7243 285.934 86.3493 285.892 86.4738L285.594 86.39C285.679 86.0979 285.721 85.6405 285.765 85.0563L285.892 82.8486H285.467L285 92.678L285.765 92.6712L285.892 90.0899C286.047 86.8542 288.273 84.4337 292.482 84.4337C297.024 84.4337 300.05 86.9471 300.05 90.7217" fill="black"/>
<path d="M310.591 103.475C310.591 106.459 312.688 108.889 315.182 108.889C317.528 108.889 319.093 107.417 319.093 105.223C319.093 104.736 319.007 104.272 318.866 103.842L318.526 104.009C318.64 104.385 318.711 104.786 318.711 105.223C318.711 106.695 317.72 107.68 316.245 107.68C314.77 107.68 313.51 106.527 313.51 105.112C313.51 104.605 313.631 104.037 313.908 103.432V74.1113H313.568V74.2789C313.568 75.9862 311.486 76.4866 309.743 76.4866H307.32V76.8625H309.317C310.147 76.8625 310.593 77.3199 310.593 78.1124V103.475H310.591Z" fill="black"/>
<path d="M327.66 88.1642C328.386 84.5673 332.742 82.9834 336.471 82.9834C337.593 82.9834 338.682 83.1154 339.573 83.4124C342.542 84.3693 345.116 87.6692 344.027 91.9921C341.75 100.935 330.366 98.0638 329.673 101.496H343.994C343.994 102.519 343.994 103.542 343.994 104.565C343.994 105.786 342.971 106.776 341.75 106.776H327.693C326.769 98.6908 332.445 96.9749 335.976 94.5C338.517 92.718 338.88 89.6822 338.418 87.8012C337.857 85.6563 336.735 84.0394 334.293 84.0394C333.138 84.0394 332.082 84.5013 331.62 85.4913C331.224 86.2503 331.653 87.2402 332.676 87.2402C332.874 87.2402 333.072 87.2072 333.303 87.1412C334.854 89.6492 332.874 92.0251 330.729 92.0251C329.904 92.0251 329.046 91.6951 328.353 90.9031C327.726 90.2101 327.462 89.2202 327.66 88.1642Z" fill="#135EB7"/>
<path d="M357.952 107.271C343.168 107.303 343.168 83.1484 357.919 83.1154C372.702 83.0824 372.735 107.271 357.952 107.271ZM357.952 83.9074C352.309 83.9074 351.682 106.578 357.952 106.578C364.188 106.578 363.561 83.9074 357.952 83.9074Z" fill="#135EB7"/>
<path d="M371.39 88.1642C372.116 84.5673 376.472 82.9834 380.201 82.9834C381.322 82.9834 382.411 83.1154 383.302 83.4124C386.272 84.3693 388.846 87.6692 387.757 91.9921C385.48 100.935 374.096 98.0638 373.403 101.496H387.724C387.724 102.519 387.724 103.542 387.724 104.565C387.724 105.786 386.701 106.776 385.48 106.776H371.423C370.499 98.6908 376.175 96.9749 379.706 94.5C382.246 92.718 382.609 89.6822 382.147 87.8012C381.586 85.6563 380.465 84.0394 378.023 84.0394C376.868 84.0394 375.812 84.5013 375.35 85.4913C374.954 86.2503 375.383 87.2402 376.406 87.2402C376.604 87.2402 376.802 87.2072 377.033 87.1412C378.584 89.6492 376.604 92.0251 374.459 92.0251C373.634 92.0251 372.776 91.6951 372.083 90.9031C371.456 90.2101 371.192 89.2202 371.39 88.1642Z" fill="#135EB7"/>
<path d="M393.465 83.6764H407.555V86.4813C407.555 87.7022 406.532 88.7252 405.311 88.7252L393.96 88.6922L392.97 94.566C393.993 91.9261 396.996 90.5401 400.131 90.5401C404.915 90.5401 409.964 93.741 408.842 100.539C408.05 105.159 403.496 107.369 399.108 107.369C396.6 107.369 394.125 106.611 392.508 105.192C390.627 103.542 389.934 101.133 391.221 99.4498C391.914 98.5588 392.838 98.1958 393.729 98.1958C395.808 98.1958 397.821 100.176 396.567 102.717C394.719 102.486 394.026 106.512 398.646 106.116C403.496 105.687 404.453 98.1298 401.648 95.2259C400.658 94.203 399.24 93.642 397.722 93.642C395.973 93.642 394.125 94.401 392.739 96.0839C392.508 95.9189 392.145 95.7209 391.947 95.5559L393.465 83.6764Z" fill="#135EB7"/>
<defs>
<linearGradient id="paint0_linear_1392_6221" x1="48.449" y1="76.7664" x2="76.2378" y2="92.1473" gradientUnits="userSpaceOnUse">
<stop stop-color="#0A509F"/>
<stop offset="0.34" stop-color="#234499"/>
<stop offset="1" stop-color="#533090"/>
</linearGradient>
<linearGradient id="paint1_linear_1392_6221" x1="45.69" y1="27.8013" x2="16.3687" y2="93.8715" gradientUnits="userSpaceOnUse">
<stop stop-color="#27B7EA"/>
<stop offset="0.53" stop-color="#1687C8"/>
<stop offset="1" stop-color="#075BA8"/>
</linearGradient>
<linearGradient id="paint2_linear_1392_6221" x1="80.255" y1="61.5933" x2="58.3812" y2="61.5933" gradientUnits="userSpaceOnUse">
<stop stop-color="#D8599F"/>
<stop offset="0.55" stop-color="#9754A0"/>
<stop offset="1" stop-color="#6851A2"/>
</linearGradient>
<linearGradient id="paint3_linear_1392_6221" x1="68.8193" y1="-9.51124" x2="103.074" y2="125.787" gradientUnits="userSpaceOnUse">
<stop stop-color="#D8599F"/>
<stop offset="1" stop-color="#8F4199"/>
</linearGradient>
<linearGradient id="paint4_linear_1392_6221" x1="118.09" y1="13.8415" x2="87.4076" y2="79.103" gradientUnits="userSpaceOnUse">
<stop stop-color="#27B7EA"/>
<stop offset="0.61" stop-color="#1687C8"/>
<stop offset="1" stop-color="#0B67B2"/>
</linearGradient>
<linearGradient id="paint5_linear_1392_6221" x1="84.6311" y1="9.29895" x2="103.171" y2="31.0679" gradientUnits="userSpaceOnUse">
<stop stop-color="#D8599F"/>
<stop offset="1" stop-color="#8F4199"/>
</linearGradient>
<linearGradient id="paint6_linear_1392_6221" x1="98.8716" y1="26.9595" x2="93.502" y2="16.5374" gradientUnits="userSpaceOnUse">
<stop stop-color="#F48220"/>
<stop offset="1" stop-color="#FEDD42"/>
</linearGradient>
</defs>
</svg>
